<svg viewBox="0 0 500 500" height="100%" version="1.1"
xmlns="http://www.w3.org/2000/svg"
xmlns:xlink="http://www.w3.org/1999/xlink" xml:space="preserve">
<g id="features">

<g id="34_fatih" name="fatih"  data-type="ilce" data-textpath="M242.6,316.33 Q250.2,307.95 260.18,307.67" data-textpathlength="19.6" data-vectorcenter="250.2,307.95"><path d="M242.6,316.33 242.6,316.33 244.35,315.32 244.84,314.95 245.29,314.42 245.77,313.72 246.04,313.24 246.4,312.55 246.77,312.16 247.19,311.94 247.89,311.77 249.95,311.48 254,311.38 254.89,311.41 255.44,311.51 256.35,311.75 256.9,311.82 257.46,311.8 258,311.66 258.49,311.38 258.92,311 259.31,310.57 259.59,310.15 259.78,309.75 259.98,309.1 260.16,308.24 260.18,307.67 260.1,307.16 259.85,306.73 259.52,306.48 259.07,306.48 258.26,306.72 257.69,306.77 257.11,306.69 256.25,306.43 255.12,306.02 254.62,305.75 254.07,305.34 253.45,304.8 252.46,303.72 251.28,302.35 250.94,301.92 250.06,300.8 248.97,299.47 248.97,299.47 248.23,299.69 247.82,300.55 246.95,302.14 245.25,304.35 245.25,304.35 245.25,304.35 245.25,304.35 243.27,307.82 243.2,310.48 242.9,314.18 242.62,315.15 242.6,316.33 242.6,316.33" vector-effect="non-scaling-stroke"></path></g>
<g id="34_zeytinburnu" name="zeytinburnu"  data-type="ilce" data-textpath="M235.79,319.2 Q239.83,310.57 243.84,303" data-textpathlength="18.09" data-vectorcenter="239.83,310.57"><path d="M245.25,304.35 244.64,303.76 243.84,303 243.84,303 243.56,303.25 242.32,303.4 241.48,302.34 240.04,302.07 239.07,302.69 237.94,303.24 237.44,303.33 237.44,303.33 237.47,303.83 237.8,305.4 237.85,305.59 237.85,305.59 237.85,305.59 237.8,306.85 237.56,308.15 236.79,309.37 236.61,310.13 236.61,310.13 236.61,310.13 235.94,311.39 235.61,312.79 236.11,313.92 235.67,314.66 235.52,315.5 235.39,317.18 235.15,318.06 235.79,319.2 235.79,319.2 235.79,319.2 238.83,318.31 239.51,318.06 242.07,316.63 242.6,316.33 242.6,316.33 242.6,316.33 242.62,315.15 242.9,314.18 243.2,310.48 243.27,307.82 245.25,304.35 245.25,304.35" vector-effect="non-scaling-stroke"></path></g>
<g id="34_bakırköy" name="bakırköy"  data-type="ilce" data-textpath="M205.23,316.57 Q220.71,318.56 236.61,310.13" data-textpathlength="32.03" data-vectorcenter="220.71,318.56"><path d="M236.61,310.13 235.36,311.15 233.64,311.82 233.64,311.82 233.64,311.82 226.18,314.49 217.43,314.4 214.7,312.35 214.7,312.35 214.7,312.35 214.7,312.35 211.69,312.68 211.63,315.63 208.21,316.79 205.23,316.57 205.63,318.93 205.71,319.35 205.71,319.35 205.71,319.35 209.28,321.56 210.11,322.16 212.65,324.11 214.27,325.54 214.7,325.84 215.21,326.09 215.88,326.33 216.44,326.44 218.96,326.54 219.7,326.54 220.27,326.42 220.79,326.19 221.77,325.62 222.22,325.29 222.58,324.86 223.07,323.98 223.37,323.33 223.8,322.1 224.03,321.64 224.36,321.21 224.74,320.84 225.18,320.51 225.7,320.3 226.41,320.24 227.72,320.28 228.3,320.38 229.42,320.74 229.96,320.77 230.67,320.63 235.79,319.2 235.79,319.2 235.15,318.06 235.39,317.18 235.52,315.5 235.67,314.66 236.11,313.92 235.61,312.79 235.94,311.39 236.61,310.13 236.61,310.13" vector-effect="non-scaling-stroke"></path></g>
<g id="34_beyoğlu" name="beyoğlu"  data-type="ilce" data-textpath="M249.76,291.79 Q254.82,299.39 260.67,302.9" data-textpathlength="15.57" data-vectorcenter="254.82,299.39"><path d="M261.61,299.62 261.61,299.62 261.06,299.61 260.12,299.21 259.57,299.03 259.22,298.65 258.66,298.61 257.78,298.09 257.16,297.58 256.78,297.48 255.59,297.73 255.15,296.96 254.07,296 253.53,295.09 253.53,295.09 253.53,295.09 253.53,295.09 252.47,295.03 251.85,293.88 251.1,292.73 250.07,291.86 249.76,291.79 249.76,291.79 249.76,291.79 250.01,292.84 250.08,293.69 249.79,294.34 248.67,295.07 248.06,295.7 247.92,296.69 248.41,297.59 250.19,299.39 250.4,299.59 250.74,299.89 251.81,300.68 252.79,301.37 253.73,301.96 254.17,302.29 254.51,302.62 254.78,303.06 254.98,303.59 255.22,304.32 255.48,304.71 255.86,305 256.31,305.2 256.8,305.32 257.36,305.29 257.87,305.05 258.96,304.3 259.89,303.58 260.67,302.9 261.06,302.47 261.51,301.76 262.17,300.67 262.35,300.43 262.35,300.43 262.32,300.39 261.87,299.87 261.61,299.62" vector-effect="non-scaling-stroke"></path></g>
<g id="34_beşiktaş" name="beşiktaş"  data-type="ilce" data-textpath="M261.87,299.87 Q269,289.56 271.7,280.19" data-textpathlength="22" data-vectorcenter="269,289.56"><path d="M277.43,285.94 277.43,285.94 277.5,285.32 276.05,285.24 274.32,283.95 270.63,282.41 270.52,281.6 271.23,280.75 271.7,280.19 270.53,280.18 269.51,280.38 268.19,279.7 266.75,278.28 265.03,281.1 264.71,282.05 264.71,282.05 264.74,282.64 265.42,284.95 265.42,284.95 265.74,285.41 267.08,287.74 267,290.34 266.08,291.75 264.87,290.88 264.03,291.57 263.65,293.39 263.3,295.02 263.56,296.39 262.44,297.22 262.51,298.24 261.59,299.17 261.61,299.62 261.61,299.62 261.87,299.87 262.32,300.39 262.35,300.43 262.35,300.43 262.35,300.43 262.68,300.11 263.16,299.84 263.77,299.62 264.99,299.27 266.54,298.7 267.65,298.24 271.13,296.5 271.63,296.2 272.02,295.8 272.36,295.18 274.2,291.26 274.38,290.72 274.51,289.74 274.66,287.91 274.75,287.44 275,287.15 275.45,286.96 276.38,286.68 276.85,286.44 277.28,286.1 277.43,285.94" vector-effect="non-scaling-stroke"></path></g>
<g id="34_sarıyer" name="sarıyer"  data-type="ilce" data-textpath="M248.45,230.84 Q267.82,252.94 278.03,284.53" data-textpathlength="61.3" data-vectorcenter="267.82,252.94"><path d="M277.43,285.94 277.43,285.94 277.7,285.56 277.92,285.03 278.03,284.53 278.09,283.99 278.08,283.45 277.96,282.9 277.76,282.37 277.38,281.57 277.27,281.06 277.29,280.57 277.42,280.04 278.11,278.12 278.8,276.74 279.35,275.77 279.7,275.32 280.9,274.07 281.27,273.62 281.56,273.14 281.65,272.61 281.63,272.08 281.48,271.59 281.16,271.19 280.48,270.67 280.07,270.27 279.75,269.82 278.81,268.12 277.56,265.88 277.21,265.45 276.77,265.16 276.27,264.94 275.53,264.64 275.03,264.32 273.95,263.51 273.38,263.03 273.04,262.58 272.9,262.1 273.04,261.71 273.46,261.35 275,260.43 279.3,257.79 281.44,256.45 281.86,256.06 282.15,255.57 282.31,255.05 282.43,254.34 282.6,253.85 283.06,252.97 283.38,252.49 286.58,248.36 287.29,247.49 287.69,247.1 288.42,246.58 289.19,246.12 289.92,245.79 290.39,245.49 290.8,245.11 291.14,244.72 291.4,244.3 291.58,243.84 291.62,243.3 291.48,241.86 291.41,241.01 291.47,240.46 291.74,239.82 292.32,238.68 292.47,238.16 292.56,237.62 292.56,237.09 292.4,236.59 292.15,236.14 291.77,235.76 291.15,235.41 289.47,234.56 286.86,233.39 286.19,233.05 285.59,232.63 284.12,231.42 283.65,231.1 283.14,230.95 281.03,230.7 278.75,230.42 277.43,230.16 274.19,229.48 273.66,229.46 273.37,229.65 273.26,230.07 273.21,231.02 273.07,231.56 272.79,232.02 272.45,232.46 272.06,232.83 271.6,233.1 271.07,233.27 270.33,233.36 269.58,233.39 267.39,233.2 264.64,232.8 261.76,232.26 258.42,231.45 255.95,230.82 255.41,230.61 254.55,230.09 253.66,229.59 251,228.29 250.31,228.03 250.26,228.02 250.26,228.02 250.26,228.02 249.62,229.86 248.45,230.84 247.04,236.06 246.23,238.02 246.83,239.06 248.24,240.28 249.4,240.96 250.93,241.47 251.5,241.96 251.4,243.19 250.58,245.11 249.96,247.12 250.11,248.54 250.72,251.77 249.76,255.61 249.68,257.65 251.27,260.64 252.59,261.22 253.76,261.86 255.49,261.61 256.89,262.84 257.03,264.15 257.09,265.16 256.6,266.05 255.71,267.01 254.58,268.83 254.05,270.25 252.95,272.39 253.32,275 252.81,275.92 252.81,275.92 253.42,276.52 253.48,278.02 254.71,279.09 255.65,279.33 257.41,279.25 259.54,279.15 259.62,280.49 261.52,280.16 262.99,279.83 264.26,280.36 264.71,282.05 264.71,282.05 264.71,282.05 265.03,281.1 266.75,278.28 268.19,279.7 269.51,280.38 270.53,280.18 271.7,280.19 271.23,280.75 270.52,281.6 270.63,282.41 274.32,283.95 276.05,285.24 277.5,285.32 277.43,285.94 277.43,285.94" vector-effect="non-scaling-stroke"></path></g>
<g id="34_şişli" name="şişli"  data-type="ilce" data-textpath="M255.59,297.73 Q260.48,292.95 265.74,285.41" data-textpathlength="15.96" data-vectorcenter="260.48,292.95"><path d="M261.61,299.62 261.61,299.62 261.06,299.61 260.12,299.21 259.57,299.03 259.22,298.65 258.66,298.61 257.78,298.09 257.16,297.58 256.78,297.48 255.59,297.73 255.15,296.96 254.07,296 253.53,295.09 253.53,295.09 253.53,295.09 253.53,295.09 255.6,291.48 257.83,290.09 258.94,289.99 260.46,288.9 260.59,287.17 262.6,287.75 264.24,288.13 265.3,287.11 264.63,285.19 265.42,284.95 265.42,284.95 265.74,285.41 267.08,287.74 267,290.34 266.08,291.75 264.87,290.88 264.03,291.57 263.65,293.39 263.3,295.02 263.56,296.39 262.44,297.22 262.51,298.24 261.59,299.17 261.61,299.62" vector-effect="non-scaling-stroke"></path></g>
<g id="34_kağıthane" name="kağıthane"  data-type="ilce" data-textpath="M251.85,293.88 Q257.68,285.49 264.26,280.36" data-textpathlength="18.35" data-vectorcenter="257.68,285.49"><path d="M264.71,282.05 264.71,282.05 264.26,280.36 262.99,279.83 261.52,280.16 259.62,280.49 259.54,279.15 257.41,279.25 255.65,279.33 254.71,279.09 253.48,278.02 253.42,276.52 252.81,275.92 252.81,275.92 252.81,275.92 252.38,277.37 252.51,278.89 252.47,280.25 253.9,281.8 255.08,283.46 254.73,284.59 253.84,285.68 253.66,286.94 252.38,288.73 251.46,289.89 250.36,291.33 249.76,291.79 249.76,291.79 250.07,291.86 251.1,292.73 251.85,293.88 252.47,295.03 253.53,295.09 253.53,295.09 253.53,295.09 253.53,295.09 255.6,291.48 257.83,290.09 258.94,289.99 260.46,288.9 260.59,287.17 262.6,287.75 264.24,288.13 265.3,287.11 264.63,285.19 265.42,284.95 265.42,284.95 264.74,282.64 264.71,282.05" vector-effect="non-scaling-stroke"></path></g>
<g id="34_eyüp" name="eyüp"  data-type="ilce" data-textpath="M209.21,213.36 Q233.19,249.49 248.97,299.47" data-textpathlength="94.85" data-vectorcenter="233.19,249.49"><path d="M243.84,303 244.64,303.76 245.25,304.35 245.25,304.35 245.25,304.35 246.95,302.14 247.82,300.55 248.23,299.69 248.97,299.47 248.97,299.47 248.97,299.47 247.95,298.09 247.12,296.75 246.74,295.76 246.92,294.99 248.14,294.4 249.48,293.89 249.05,292.02 249.76,291.79 249.76,291.79 249.76,291.79 250.36,291.33 251.46,289.89 252.38,288.73 253.66,286.94 253.84,285.68 254.73,284.59 255.08,283.46 253.9,281.8 252.47,280.25 252.51,278.89 252.38,277.37 252.81,275.92 252.81,275.92 252.81,275.92 253.32,275 252.95,272.39 254.05,270.25 254.58,268.83 255.71,267.01 256.6,266.05 257.09,265.16 257.03,264.15 256.89,262.84 255.49,261.61 253.76,261.86 252.59,261.22 251.27,260.64 249.68,257.65 249.76,255.61 250.72,251.77 250.11,248.54 249.96,247.12 250.58,245.11 251.4,243.19 251.5,241.96 250.93,241.47 249.4,240.96 248.24,240.28 246.83,239.06 246.23,238.02 247.04,236.06 248.45,230.84 249.62,229.86 250.26,228.02 250.26,228.02 250.26,228.02 250.26,228.02 249.3,227.8 248.6,227.58 246.98,226.93 245.57,226.26 244.47,225.69 243.92,225.55 239.66,225.26 238.65,225.16 237.82,225 235.41,224.31 230.87,222.88 230.19,222.6 229.4,222.16 227.47,221 226.95,220.81 226.44,220.87 225.88,221.07 225.36,221.03 224.8,220.89 221.66,219.86 221.13,219.61 220.02,218.86 219.39,218.48 218.84,218.26 218.3,218.15 217.56,218.06 215.74,217.87 214.88,217.7 214.19,217.5 213.7,217.27 212.89,216.73 209.94,214.44 209.52,214.05 209.25,213.61 209.21,213.36 209.21,213.36 209.21,213.36 208.37,216.01 207.97,218.28 207.61,220.64 206.45,224.26 205.5,225.08 204.68,225.96 205.29,227.65 205.63,228.79 207.09,229.14 207.62,230.36 208.43,231.75 208.79,233.53 208.52,234.61 209.03,235.77 209.94,236.88 210.69,237.87 211.42,239.17 211.7,240.44 213.95,241.26 215.11,242.54 215.66,243.56 216.12,244.5 216.9,245.06 217.14,246.44 216.14,247.6 216.75,248.69 216.73,249.75 216.69,250.88 216.67,252.08 216.93,253.13 217.41,253.94 217.25,255.48 216.3,256.01 215.9,256.6 215.69,258.06 215.62,259.15 216.1,260.58 216.04,261.73 216.13,262.98 216.37,264.38 216.57,265.85 216.82,266.94 217.23,268.42 217.23,268.42 217.23,268.42 218.33,268.71 218.33,268.71 218.33,268.71 219.87,268.83 220.58,268.87 220.45,267.09 221.05,266.17 222.86,264.11 224.05,263.17 225.01,262.34 226.45,261.62 227.71,260.87 228.37,261.39 229.13,262.19 229.38,263.45 230.73,263.25 231.46,264.66 230.94,266.13 231.9,266.44 232.79,264.93 233.87,265.44 234.57,267.37 235.57,268.38 237.25,269.37 238.48,271.39 239.8,272.5 240.53,274.1 241.4,275.27 242.66,275.08 243.49,276.62 243.06,278.75 242.59,280.95 243.09,281.89 243.09,281.89 243.5,282.3 242.9,283.26 242.39,284.77 241.87,285.84 241.62,286.98 242.08,287.81 242.05,288.56 241.2,289.09 242.59,290.31 243.79,290.64 244.72,289.77 246.04,289.98 246.92,291.07 246.62,291.79 246.75,292.26 247.05,292.58 247.51,293.63 246.24,293.82 245.54,294.32 244.86,294.15 244.48,294.72 243.88,294.46 243.54,295.05 242.21,294.56 241.51,295.27 240.54,295.66 240.54,295.66 240.54,295.66 241.73,297.36 241.83,299.1 242.92,301.69 243.84,303" vector-effect="non-scaling-stroke"></path></g>
<g id="34_gazi osmanpaşa" name="gazi osmanpaşa"  data-type="ilce" data-textpath="M231.11,286.02 Q239.47,288.51 247.51,293.63" data-textpathlength="18.08" data-vectorcenter="239.47,288.51"><path d="M243.09,281.89 243.5,282.3 242.9,283.26 242.39,284.77 241.87,285.84 241.62,286.98 242.08,287.81 242.05,288.56 241.2,289.09 242.59,290.31 243.79,290.64 244.72,289.77 246.04,289.98 246.92,291.07 246.62,291.79 246.75,292.26 247.05,292.58 247.51,293.63 246.24,293.82 245.54,294.32 244.86,294.15 244.48,294.72 243.88,294.46 243.54,295.05 242.21,294.56 241.51,295.27 240.54,295.66 240.54,295.66 240.54,295.66 238.82,293.3 237.76,291.32 235.94,289.73 234.06,288.49 232.5,287.69 232.24,287.43 232.24,287.43 231.11,286.02 231.11,286.02 231.11,286.02 233.85,283.62 237.71,282.94 241.78,282.36 243.09,281.89" vector-effect="non-scaling-stroke"></path></g>
<g id="34_bayrampaşa" name="bayrampaşa"  data-type="ilce" data-textpath="M232.24,287.43 Q237.4,296.44 243.56,303.25" data-textpathlength="19.45" data-vectorcenter="237.4,296.44"><path d="M243.84,303 243.56,303.25 242.32,303.4 241.48,302.34 240.04,302.07 239.07,302.69 237.94,303.24 237.44,303.33 237.44,303.33 237.44,303.33 236.78,301.26 234.8,300.06 233.76,297.61 234.05,293.31 232.2,289.45 232.24,287.43 232.24,287.43 232.5,287.69 234.06,288.49 235.94,289.73 237.76,291.32 238.82,293.3 240.54,295.66 240.54,295.66 240.54,295.66 240.54,295.66 241.73,297.36 241.83,299.1 242.92,301.69 243.84,303" vector-effect="non-scaling-stroke"></path></g>
<g id="34_esenler" name="esenler"  data-type="ilce" data-textpath="M224.97,277.57 Q229.19,292 237.85,305.59" data-textpathlength="30.84" data-vectorcenter="229.19,292"><path d="M230.27,299.9 230.27,299.9 227.8,299.3 227.42,296.96 226.26,294.3 226.14,292.12 226.77,290.51 226.17,289.02 224.75,290.45 223.79,291.09 222.65,291.11 220.48,290.34 220.48,290.34 220.48,290.34 220.48,290.34 221.92,288.06 223.17,285.11 224.36,281.24 224.92,279.09 224.97,277.57 224.97,277.57 224.97,277.57 226.44,280.15 228.62,283.42 231.11,286.02 231.11,286.02 231.11,286.02 232.24,287.43 232.24,287.43 232.2,289.45 234.05,293.31 233.76,297.61 234.8,300.06 236.78,301.26 237.44,303.33 237.44,303.33 237.44,303.33 237.47,303.83 237.8,305.4 237.85,305.59 237.85,305.59 237.85,305.59 235.76,306.19 234.28,306.09 234.37,304.19 234.94,302.31 232.94,301.58 231.37,301.2 230.87,300.22 230.27,299.9" vector-effect="non-scaling-stroke"></path></g>
<g id="34_güngören" name="güngören"  data-type="ilce" data-textpath="M228.39,302.62 Q232.47,306.13 236.61,310.13" data-textpathlength="11.13" data-vectorcenter="232.47,306.13"><path d="M237.85,305.59 237.85,305.59 235.76,306.19 234.28,306.09 234.37,304.19 234.94,302.31 232.94,301.58 231.37,301.2 230.87,300.22 230.27,299.9 230.27,299.9 230.27,299.9 230.66,302.7 229.82,302.92 228.39,302.62 227.1,303.42 228.12,305.64 227.52,306.66 227.52,306.66 227.52,306.66 231,309.79 231.81,308.39 232.76,306.93 232.82,309.56 233.64,311.82 233.64,311.82 235.36,311.15 236.61,310.13 236.61,310.13 236.79,309.37 237.56,308.15 237.8,306.85 237.85,305.59 237.85,305.59" vector-effect="non-scaling-stroke"></path></g>
<g id="34_bahçelievler" name="bahçelievler"  data-type="ilce" data-textpath="M214.16,303.98 Q222.52,309.73 233.64,311.82" data-textpathlength="21" data-vectorcenter="222.52,309.73"><path d="M214.81,303.43 214.81,303.43 216.08,304.75 218.26,305.74 219.21,305.1 221.7,304.45 223.09,305.3 224.4,304.91 225.64,305.39 226.5,305.91 227.52,306.66 227.52,306.66 227.52,306.66 227.52,306.66 231,309.79 231.81,308.39 232.76,306.93 232.82,309.56 233.64,311.82 233.64,311.82 233.64,311.82 226.18,314.49 217.43,314.4 214.7,312.35 214.7,312.35 214.7,312.35 214.7,312.35 214.8,310.83 214.54,309.86 214.41,309.54 214.34,309.2 214.26,308.11 214.12,307.32 213.75,307.26 213.55,306.81 213.77,305.91 214.03,305 214.16,303.98 214.81,303.43" vector-effect="non-scaling-stroke"></path></g>
<g id="34_küçükçekmece" name="küçükçekmece"  data-type="ilce" data-textpath="M201.04,318.38 Q206.11,303.91 215,292.54" data-textpathlength="29.37" data-vectorcenter="206.11,303.91"><path d="M215,292.54 214.27,292.54 211.51,291.89 208.61,291.79 205.28,292.24 201.62,292.49 197.82,292.27 197.82,292.27 197.82,292.27 197.82,292.27 197.86,293.52 196.91,296.87 197.15,299.41 198.4,305.75 199.89,314.33 201.04,318.38 201.04,318.38 201.04,318.38 201.87,318.26 203.04,318.14 203.61,318.18 204.14,318.39 205.71,319.35 205.71,319.35 205.71,319.35 205.63,318.93 205.23,316.57 208.21,316.79 211.63,315.63 211.69,312.68 214.7,312.35 214.7,312.35 214.7,312.35 214.7,312.35 214.8,310.83 214.54,309.86 214.41,309.54 214.34,309.2 214.26,308.11 214.12,307.32 213.75,307.26 213.55,306.81 213.77,305.91 214.03,305 214.16,303.98 214.81,303.43 214.81,303.43 214.81,303.43 214.47,299.16 214.28,295.7 215,292.54" vector-effect="non-scaling-stroke"></path></g>
<g id="34_avcılar" name="avcılar"  data-type="ilce" data-textpath="M185.04,279.09 Q191.45,304.34 199.68,318.88" data-textpathlength="42.4" data-vectorcenter="191.45,304.34"><path d="M197.82,292.27 197.82,292.27 197.86,293.52 196.91,296.87 197.15,299.41 198.4,305.75 199.89,314.33 201.04,318.38 201.04,318.38 200.67,318.46 200.17,318.63 199.68,318.88 198.81,319.46 197.81,320.2 196.92,320.71 196,321.19 195.46,321.39 194.73,321.51 192.65,321.73 192.09,321.74 191.54,321.67 190.85,321.47 189.66,321.01 189.14,320.84 188.42,320.72 187.41,320.6 187.41,320.6 187.41,320.6 187.44,319.49 187.24,318.12 185.85,317.98 183.3,315.07 183.29,311.63 183.29,311.63 183.29,311.63 183.98,311.96 185.72,312.08 186.79,309.17 186.38,307.19 186.74,304.33 185.55,302.15 183.93,300.75 185.29,299.29 185.08,298.79 183.95,297.82 182.42,295.52 184.2,293.63 184.2,293.63 184.2,293.63 185.09,293.37 186.8,293.01 186.57,290.92 186.44,289.17 185.51,287.05 185,284.77 184.47,283.41 184.44,281.02 185.04,279.09 187.09,281.94 187.86,283.68 188.67,284.7 190.09,286.06 191.98,288.25 193.46,289.98 194.6,291.27 196.77,291.81 197.55,292 197.82,292.27" vector-effect="non-scaling-stroke"></path></g>
<g id="34_beylikdüzü" name="beylikdüzü"  data-type="ilce" data-textpath="M159.82,313.11 Q172.55,316.98 187.41,320.6" data-textpathlength="28.59" data-vectorcenter="172.55,316.98"><path d="M183.29,311.63 183.29,311.63 183.3,315.07 185.85,317.98 187.24,318.12 187.44,319.49 187.41,320.6 187.41,320.6 187.41,320.6 186.59,320.57 186.04,320.64 185.21,320.86 184.25,321.23 183.58,321.56 181.54,322.8 181.07,323.14 180.76,323.52 180.44,324.15 180.08,324.42 179.58,324.48 178.47,324.34 174.75,324.1 173.71,324.08 172.3,324.3 171.27,324.43 167.04,324.73 166.29,324.75 165.6,324.65 164.78,324.46 163.98,324.18 162.94,323.74 162.3,323.38 161.05,322.59 160.59,322.23 160.26,321.86 159.9,321.3 159.68,320.82 159.58,320.37 159.55,319.72 159.82,313.11 159.82,313.11 159.82,313.11 159.82,313.11 161.17,313.14 162.34,313.57 163.59,314.82 165.28,312.23 167.27,309.05 168.79,306.91 169.21,306.16 169.21,306.16 174.35,308.72 178.13,310.19 181.82,310.44 183.29,311.63 183.29,311.63" vector-effect="non-scaling-stroke"></path></g>
<g id="34_büyükçekmece" name="büyükçekmece"  data-type="ilce" data-textpath="M106.98,296.64 Q143.83,294.28 169.21,306.16" data-textpathlength="62.95" data-vectorcenter="143.83,294.28"><path d="M169.18,283.39 169.18,283.39 168.46,282.19 167.91,281.04 166.9,279.76 166.46,278.47 165.98,277.34 165.27,276.4 164.73,275.53 164.21,274.43 163.48,274.11 162.68,275.29 161.68,275.76 161.56,273.92 160.21,273.2 159.54,272.06 159.31,271.26 158.3,270.97 157.15,271.27 155.04,271.77 153.55,273.81 152.06,275.12 151.38,275.12 151.38,275.12 151.38,275.12 149.64,280.02 147.43,283.32 144.18,280.31 142.33,278.39 141.14,277.77 139.49,278.08 135.56,280.29 134.63,282.76 132.12,284.12 129.58,285.24 128.83,287.23 128.24,290.02 125.04,290.13 121.82,288.58 118.98,287.23 116.54,287.56 113.15,286.64 109.68,284.62 109.68,284.62 109.55,284.87 107.77,289.05 107.6,292.4 107.44,295.03 106.98,296.64 106.98,296.64 106.98,296.64 106.98,296.64 107.68,296.77 108.94,296.95 109.51,297.1 114.2,298.76 118.86,300.67 122.53,302.29 123.74,302.87 126.06,304.19 127.61,305.2 128.92,306.13 132.97,309.14 140.61,313.95 144.92,316.62 145.42,316.88 145.83,316.93 146.09,316.62 146.23,316.09 146.59,314.1 146.73,313.54 147.13,312.49 147.51,311.65 148.37,310.03 148.66,309.57 148.96,309.19 149.52,308.63 151.46,306.89 151.95,306.59 152.49,306.4 153.04,306.27 153.61,306.19 155.05,306.16 155.93,306.2 156.51,306.31 157.45,306.69 158.77,307.32 159.23,307.64 159.74,308.09 160.08,308.5 160.25,308.92 160.32,309.37 160.3,309.92 160.08,310.54 159.97,310.98 159.89,311.65 159.82,313.11 159.82,313.11 159.82,313.11 161.17,313.14 162.34,313.57 163.59,314.82 165.28,312.23 167.27,309.05 168.79,306.91 169.21,306.16 169.21,306.16 169.21,306.16 168.01,304.27 166.75,301.64 166.99,300.09 167.83,296.91 165.99,290.68 166.88,287.51 169.18,283.39 169.18,283.39" vector-effect="non-scaling-stroke"></path></g>
<g id="34_silivri" name="silivri"  data-type="ilce" data-textpath="M6.28,304.09 Q54.54,254.27 87.69,212.83" data-textpathlength="122.29" data-vectorcenter="54.54,254.27"><path d="M25.03,215.95 25.03,215.95 23.63,222.41 21.35,227.07 12.97,229.98 7.85,233.53 7.85,233.53 7.85,233.53 6.33,235.89 6.23,241.43 9.82,245.76 14.6,249.87 14.59,250.42 14.07,250.83 14.02,251.43 13.49,252.93 11.29,257.69 9.9,258.89 10.08,260.1 9.92,260.96 9,261.2 8.92,261.45 9.45,262.18 7.94,264.08 7.32,265.71 6.43,266.89 6.07,267.66 5.81,269.17 4.71,270.45 4.13,271.7 3.53,273.05 2.83,274.15 2,275.68 1.66,276.58 2.39,277.81 2.53,279.47 1.76,280.54 0.95,280.82 0.64,282.32 0.36,283.05 0.04,283.93 0.2,284.25 0.2,284.25 0.2,284.25 0.42,284.48 1.02,285.33 0.32,286.23 0,287.61 0.52,288.01 1.28,287.83 1.52,287.83 1.96,288.26 2.27,289.09 1.26,290.39 0.32,291.19 0.8,292.42 1.52,294 3.29,297.03 6.28,304.09 6.28,304.09 6.28,304.09 6.28,304.09 7.39,303.07 8.21,302.44 9.55,301.52 11.98,300.1 13.4,299.34 14.06,299.05 14.59,298.93 15.7,298.81 17.3,298.6 17.88,298.46 18.43,298.25 18.95,297.96 20.57,296.88 21.95,295.76 22.54,295.31 23.04,295.04 24.36,294.43 25.45,294.02 26.03,293.87 31.08,293.1 34.16,292.71 36.21,292.52 36.78,292.42 37.64,292.16 38.78,291.76 39.4,291.47 40.63,290.83 42.05,290.31 42.92,290.03 43.96,289.81 49.78,288.73 50.68,288.66 52.95,288.6 54.72,288.77 55.9,288.93 58.26,289.36 59.73,289.59 60.29,289.62 60.83,289.55 61.28,289.25 61.73,288.7 62.39,287.78 62.78,287.41 63.25,287.17 63.79,287.04 64.55,287.02 66.04,287.06 67.21,287.16 67.75,287.28 68.29,287.51 68.69,287.84 68.97,288.22 69.21,288.97 69.37,289.4 69.71,289.81 70.41,290.32 71.66,291.1 72.31,291.45 72.83,291.63 73.48,291.73 74.3,291.78 77.48,291.69 78.35,291.71 79.51,291.86 84.72,292.72 85.46,292.9 86.12,293.2 86.66,293.39 87.22,293.48 90.19,293.76 90.94,293.77 92.44,293.67 94.01,293.45 94.58,293.44 95.14,293.52 95.64,293.73 96.87,294.52 97.31,294.78 97.85,294.96 98.56,295.1 99.41,295.22 99.97,295.23 100.52,295.16 101.35,295 101.93,295.02 102.46,295.16 103.64,295.6 105.42,296.22 106.71,296.57 106.98,296.64 106.98,296.64 106.98,296.64 107.44,295.03 107.6,292.4 107.77,289.05 109.55,284.87 109.68,284.62 109.68,284.62 109.68,284.62 110.77,281.28 108.95,277.34 106.95,275.02 106.22,272.03 107.33,268.88 106.18,264.34 104.02,261.89 101.83,257.86 101.16,255.3 102.1,253.47 102.84,252.84 102.44,250.6 102.95,247.58 102.66,246.33 102.08,245.09 101,245.33 100.94,244.24 99.93,243.77 98.73,242.87 97.94,241.6 96.39,239.48 95.62,236.61 95.26,235.38 94.4,234.78 93.28,235 92.09,235.1 91.15,234.9 89.96,234.53 88.79,234.19 87.74,233.26 88.18,231.96 87.52,230.51 85.17,227.71 84.05,224.65 85.81,220.21 88.1,214.77 87.69,212.83 84.98,213.09 83.05,213.29 80.7,214.19 79.06,212.1 76.67,211.54 74.87,208.89 74.49,206.34 75.8,205.31 77.03,204.98 77.8,203 78.62,200.3 77.46,198.39 75.25,198.64 72.61,200.93 68.7,202.44 64.76,202.48 59.71,200.99 54.76,198.82 47.77,197.16 43.87,197.44 41.68,200.69 42.03,206.58 43.08,209.25 41.84,210.22 39.92,211.54 38.91,213.44 37.39,215.03 35.2,216.56 33.58,216.61 31.75,216.54 29.9,216.07 25.59,215.77 25.03,215.95" vector-effect="non-scaling-stroke"></path></g>
<g id="34_çatalca" name="çatalca"  data-type="ilce" data-textpath="M37,131.79 Q98.95,206.47 149.64,280.02" data-textpathlength="186.17" data-vectorcenter="98.95,206.47"><path d="M151.38,275.12 151.38,275.12 149.64,280.02 147.43,283.32 144.18,280.31 142.33,278.39 141.14,277.77 139.49,278.08 135.56,280.29 134.63,282.76 132.12,284.12 129.58,285.24 128.83,287.23 128.24,290.02 125.04,290.13 121.82,288.58 118.98,287.23 116.54,287.56 113.15,286.64 109.68,284.62 109.68,284.62 109.68,284.62 110.77,281.28 108.95,277.34 106.95,275.02 106.22,272.03 107.33,268.88 106.18,264.34 104.02,261.89 101.83,257.86 101.16,255.3 102.1,253.47 102.84,252.84 102.44,250.6 102.95,247.58 102.66,246.33 102.08,245.09 101,245.33 100.94,244.24 99.93,243.77 98.73,242.87 97.94,241.6 96.39,239.48 95.62,236.61 95.26,235.38 94.4,234.78 93.28,235 92.09,235.1 91.15,234.9 89.96,234.53 88.79,234.19 87.74,233.26 88.18,231.96 87.52,230.51 85.17,227.71 84.05,224.65 85.81,220.21 88.1,214.77 87.69,212.83 84.98,213.09 83.05,213.29 80.7,214.19 79.06,212.1 76.67,211.54 74.87,208.89 74.49,206.34 75.8,205.31 77.03,204.98 77.8,203 78.62,200.3 77.46,198.39 75.25,198.64 72.61,200.93 68.7,202.44 64.76,202.48 59.71,200.99 54.76,198.82 47.77,197.16 43.87,197.44 41.68,200.69 42.03,206.58 43.08,209.25 41.84,210.22 39.92,211.54 38.91,213.44 37.39,215.03 35.2,216.56 33.58,216.61 31.75,216.54 29.9,216.07 25.59,215.77 25.03,215.95 25.03,215.95 26.58,208.61 26.75,208.03 26.75,208.03 27.64,205.25 29.77,200.06 29.33,196.38 31.21,189.04 35.46,182.92 35.46,182.92 35.46,182.92 35.46,182.92 37.48,180.92 38.49,178.26 36.28,172.5 35.48,166.31 33.4,159.94 28.44,154.26 25.74,150.97 26.32,148.22 31.67,144.48 35.7,141.68 36.48,138.32 36.96,138.27 37.77,137.37 37.67,136.17 37.32,135.87 38.16,134.96 38.55,133.49 38.33,133.06 38.27,132.46 37.28,132.23 37,131.79 38.15,130.93 38.55,129.81 39.47,128.7 40.37,128 40.91,126.9 41.74,125.81 43.06,125.37 44.47,124.88 44.48,124.88 44.48,124.88 44.64,125.05 45.29,125.65 45.76,125.98 46.68,126.43 48.97,127.42 49.95,127.72 51.66,128.17 52.21,128.39 52.74,128.67 53.36,129.09 54.02,129.64 54.28,130.03 54.19,130.33 53.61,130.66 53.29,130.93 53.2,131.23 53.25,131.72 53.46,132.37 53.88,133.39 54.14,133.88 54.46,134.27 59.16,138.89 60.35,140 65.7,144.74 66.3,145.19 67.08,145.63 69.49,146.91 70.09,147.32 71.81,148.73 72.47,149.32 73.52,150.44 73.93,150.83 75.82,152.31 76.65,152.91 77.16,153.19 78.72,153.77 79.57,154.09 80.64,154.62 99.1,164.26 114.48,172.17 121.65,175.55 126.5,177.74 129.32,179.29 138.44,184.01 143.22,186.38 144.16,186.81 144.85,187.01 146.82,187.48 148.35,187.95 149.42,188.44 151.24,189.38 152.05,189.92 152.94,190.65 154.04,191.6 154.52,191.92 156.55,193.06 165.41,197.39 165.41,197.39 165.41,197.39 165.47,198.2 165.98,199.21 166.31,200.35 165.33,200.5 166.53,202.17 165.26,204.17 162.71,205.87 158.2,203.97 153.93,202.06 150.54,207.15 149.77,211.95 149.14,214.66 149.14,217.19 148.23,219.15 148.02,220.98 147.62,222.6 146.17,223.28 146.28,224.94 147.08,227.47 148.29,228.67 149.8,228.29 151.1,228.22 152.47,228.56 153.64,228.84 154.37,229.86 154.29,231.28 154.46,232.4 154.46,233.28 154.58,234.96 154.65,236.22 154.46,237.29 155.25,238.56 156.36,240.57 156.35,242.29 156.8,244.17 157.3,246.03 158.41,248.91 159.63,252.23 159.35,254.14 159.14,256.23 158.93,258.42 157.07,259.62 156.59,260.81 155.72,262.81 155.29,262.75 154.64,264.38 154.11,264.94 153.47,265.65 152.97,266.3 152.2,266.94 153.11,268.15 153.67,270.27 153.82,271.6 153.31,272.51 152.63,273.54 151.38,275.12 151.38,275.12" vector-effect="non-scaling-stroke"></path></g>
<g id="34_sultangazi" name="sultangazi"  data-type="ilce" data-textpath="M218.33,268.71 Q231.27,273.78 243.49,276.62" data-textpathlength="26.37" data-vectorcenter="231.27,273.78"><path d="M224.97,277.57 224.97,277.57 226.44,280.15 228.62,283.42 231.11,286.02 231.11,286.02 231.11,286.02 231.11,286.02 233.85,283.62 237.71,282.94 241.78,282.36 243.09,281.89 243.09,281.89 242.59,280.95 243.06,278.75 243.49,276.62 242.66,275.08 241.4,275.27 240.53,274.1 239.8,272.5 238.48,271.39 237.25,269.37 235.57,268.38 234.57,267.37 233.87,265.44 232.79,264.93 231.9,266.44 230.94,266.13 231.46,264.66 230.73,263.25 229.38,263.45 229.13,262.19 228.37,261.39 227.71,260.87 226.45,261.62 225.01,262.34 224.05,263.17 222.86,264.11 221.05,266.17 220.45,267.09 220.58,268.87 219.87,268.83 218.33,268.71 218.33,268.71 218.33,268.71 218.33,268.71 219.97,271.01 221.83,272.01 223.53,273.89 223.55,275.22 224.36,276.39 224.97,277.57" vector-effect="non-scaling-stroke"></path></g>
<g id="34_esenyurt" name="esenyurt"  data-type="ilce" data-textpath="M169.18,283.39 Q175.78,298.4 185.72,312.08" data-textpathlength="33.12" data-vectorcenter="175.78,298.4"><path d="M184.2,293.63 184.2,293.63 182.42,295.52 183.95,297.82 185.08,298.79 185.29,299.29 183.93,300.75 185.55,302.15 186.74,304.33 186.38,307.19 186.79,309.17 185.72,312.08 183.98,311.96 183.29,311.63 183.29,311.63 183.29,311.63 181.82,310.44 178.13,310.19 174.35,308.72 169.21,306.16 169.21,306.16 169.21,306.16 168.01,304.27 166.75,301.64 166.99,300.09 167.83,296.91 165.99,290.68 166.88,287.51 169.18,283.39 169.18,283.39 169.18,283.39 169.52,283.05 170.72,281.76 171.53,281.18 171.53,281.18 172.48,282.81 174.2,285.6 175.79,288.56 180.51,291.87 182.73,292.51 184.2,293.63 184.2,293.63" vector-effect="non-scaling-stroke"></path></g>
<g id="34_başakşehir" name="başakşehir"  data-type="ilce" data-textpath="M171.53,281.18 Q201.47,280.52 224.97,277.57" data-textpathlength="53.56" data-vectorcenter="201.47,280.52"><path d="M217.23,268.42 218.33,268.71 218.33,268.71 218.33,268.71 219.97,271.01 221.83,272.01 223.53,273.89 223.55,275.22 224.36,276.39 224.97,277.57 224.97,277.57 224.92,279.09 224.36,281.24 223.17,285.11 221.92,288.06 220.48,290.34 220.48,290.34 220.48,290.34 220.48,290.34 217.37,289.49 215.97,289.2 215.55,290.91 215,292.54 215,292.54 215,292.54 214.27,292.54 211.51,291.89 208.61,291.79 205.28,292.24 201.62,292.49 197.82,292.27 197.82,292.27 197.82,292.27 197.55,292 196.77,291.81 194.6,291.27 193.46,289.98 191.98,288.25 190.09,286.06 188.67,284.7 187.86,283.68 187.09,281.94 185.04,279.09 184.44,281.02 184.47,283.41 185,284.77 185.51,287.05 186.44,289.17 186.57,290.92 186.8,293.01 185.09,293.37 184.2,293.63 184.2,293.63 184.2,293.63 182.73,292.51 180.51,291.87 175.79,288.56 174.2,285.6 172.48,282.81 171.53,281.18 171.53,281.18 171.53,281.18 171.74,279.23 173.81,279.67 176.01,280.25 177.32,278.75 179.46,277.36 180.44,275.87 181.45,273.49 183.51,271.21 189.75,275.87 193.18,275.56 194.7,272.85 195.08,270.59 195.49,268.7 196.73,269.5 198.29,269.22 200.26,269.74 202.22,268.78 204.72,267.41 206.79,264.74 208.36,264.3 211.05,265.79 216.19,268.43 217.23,268.42" vector-effect="non-scaling-stroke"></path></g>
<g id="34_bağcılar" name="bağcılar"  data-type="ilce" data-textpath="M215.97,289.2 Q221.35,298.03 228.12,305.64" data-textpathlength="20.44" data-vectorcenter="221.35,298.03"><path d="M230.27,299.9 230.27,299.9 230.66,302.7 229.82,302.92 228.39,302.62 227.1,303.42 228.12,305.64 227.52,306.66 227.52,306.66 227.52,306.66 226.5,305.91 225.64,305.39 224.4,304.91 223.09,305.3 221.7,304.45 219.21,305.1 218.26,305.74 216.08,304.75 214.81,303.43 214.81,303.43 214.81,303.43 214.81,303.43 214.47,299.16 214.28,295.7 215,292.54 215,292.54 215,292.54 215.55,290.91 215.97,289.2 217.37,289.49 220.48,290.34 220.48,290.34 220.48,290.34 220.48,290.34 222.65,291.11 223.79,291.09 224.75,290.45 226.17,289.02 226.77,290.51 226.14,292.12 226.26,294.3 227.42,296.96 227.8,299.3 230.27,299.9 230.27,299.9" vector-effect="non-scaling-stroke"></path></g>
<g id="34_arnavutköy" name="arnavutköy"  data-type="ilce" data-textpath="M153.93,202.06 Q181.27,239.2 217.23,268.42" data-textpathlength="91.71" data-vectorcenter="181.27,239.2"><path d="M165.41,197.39 165.47,198.2 165.98,199.21 166.31,200.35 165.33,200.5 166.53,202.17 165.26,204.17 162.71,205.87 158.2,203.97 153.93,202.06 150.54,207.15 149.77,211.95 149.14,214.66 149.14,217.19 148.23,219.15 148.02,220.98 147.62,222.6 146.17,223.28 146.28,224.94 147.08,227.47 148.29,228.67 149.8,228.29 151.1,228.22 152.47,228.56 153.64,228.84 154.37,229.86 154.29,231.28 154.46,232.4 154.46,233.28 154.58,234.96 154.65,236.22 154.46,237.29 155.25,238.56 156.36,240.57 156.35,242.29 156.8,244.17 157.3,246.03 158.41,248.91 159.63,252.23 159.35,254.14 159.14,256.23 158.93,258.42 157.07,259.62 156.59,260.81 155.72,262.81 155.29,262.75 154.64,264.38 154.11,264.94 153.47,265.65 152.97,266.3 152.2,266.94 153.11,268.15 153.67,270.27 153.82,271.6 153.31,272.51 152.63,273.54 151.38,275.12 151.38,275.12 151.38,275.12 152.06,275.12 153.55,273.81 155.04,271.77 157.15,271.27 158.3,270.97 159.31,271.26 159.54,272.06 160.21,273.2 161.56,273.92 161.68,275.76 162.68,275.29 163.48,274.11 164.21,274.43 164.73,275.53 165.27,276.4 165.98,277.34 166.46,278.47 166.9,279.76 167.91,281.04 168.46,282.19 169.18,283.39 169.18,283.39 169.18,283.39 169.52,283.05 170.72,281.76 171.53,281.18 171.53,281.18 171.53,281.18 171.74,279.23 173.81,279.67 176.01,280.25 177.32,278.75 179.46,277.36 180.44,275.87 181.45,273.49 183.51,271.21 189.75,275.87 193.18,275.56 194.7,272.85 195.08,270.59 195.49,268.7 196.73,269.5 198.29,269.22 200.26,269.74 202.22,268.78 204.72,267.41 206.79,264.74 208.36,264.3 211.05,265.79 216.19,268.43 217.23,268.42 217.23,268.42 217.23,268.42 216.82,266.94 216.57,265.85 216.37,264.38 216.13,262.98 216.04,261.73 216.1,260.58 215.62,259.15 215.69,258.06 215.9,256.6 216.3,256.01 217.25,255.48 217.41,253.94 216.93,253.13 216.67,252.08 216.69,250.88 216.73,249.75 216.75,248.69 216.14,247.6 217.14,246.44 216.9,245.06 216.12,244.5 215.66,243.56 215.11,242.54 213.95,241.26 211.7,240.44 211.42,239.17 210.69,237.87 209.94,236.88 209.03,235.77 208.52,234.61 208.79,233.53 208.43,231.75 207.62,230.36 207.09,229.14 205.63,228.79 205.29,227.65 204.68,225.96 205.5,225.08 206.45,224.26 207.61,220.64 207.97,218.28 208.37,216.01 209.21,213.36 209.21,213.36 209.21,213.36 209.21,213.36 209.14,212.79 208.96,212.35 208.59,211.93 208.11,211.62 203.56,209.5 202.62,209.09 202.06,208.94 201.35,208.82 200.29,208.77 199.7,208.7 199.14,208.55 198.47,208.3 197.69,207.9 196.3,207.17 195.82,206.98 195.32,206.93 194.87,207.06 194.33,207.32 193.79,207.38 193.24,207.32 192.69,207.17 191.73,206.77 187.65,204.98 184.56,203.53 183.86,203.29 179.8,202.26 178.21,201.86 177.67,201.65 176.62,201.13 176.13,200.82 175.58,200.37 175.14,200.09 174.57,199.93 173.82,199.82 173.07,199.78 172.02,199.9 171.44,199.94 170.86,199.83 169.05,199.1 167.26,198.29 165.41,197.39" vector-effect="non-scaling-stroke"></path></g>
<g id="34_üsküdar" name="üsküdar"  data-type="ilce" data-textpath="M267.7,312.19 Q277.62,302.57 284.89,291.48" data-textpathlength="26.91" data-vectorcenter="277.62,302.57"><path d="M280.05,287.06 280.05,287.06 279.64,287.74 278.33,290.01 277.36,291.86 277.07,292.48 276.94,293.02 276.82,294.29 276.8,295.65 276.75,296.18 276.55,296.64 276.16,297.04 274.71,298.09 272.75,299.46 266.03,303.94 265.59,304.3 265.34,304.7 265.26,305.17 265.3,305.7 265.96,308.52 266.39,310.34 266.62,310.85 266.96,311.32 267.7,312.19 267.7,312.19 267.7,312.19 268.57,312.47 269.21,312.37 270.65,311.25 271.02,310.15 272.23,308.94 273.39,308.4 274.25,309.04 275.09,309.13 275.39,310.16 275.67,311.27 277.88,312.55 282.19,314.62 282.19,314.62 282.19,314.62 282.25,312.4 282.87,310.22 285.51,309.19 286.2,309.13 286.2,309.13 286.2,309.13 285.99,307.99 285.02,306.3 284.74,304.51 284.09,303.26 285.08,302.29 285.83,301.12 286.59,300.18 286.59,298.92 286.3,297.28 285.95,295.98 285.71,294.83 284.66,293.99 285.29,292.84 284.86,291.71 284.89,291.48 284.89,291.48 284.61,291.37 283.25,290.48 282.27,289.78 280.05,287.06 280.05,287.06" vector-effect="non-scaling-stroke"></path></g>
<g id="34_kadıköy" name="kadıköy"  data-type="ilce" data-textpath="M267.7,312.19 Q279.27,318.65 291.99,325.32" data-textpathlength="27.61" data-vectorcenter="279.27,318.65"><path d="M291.99,325.32 291.99,325.32 291.08,325.67 289.7,326.2 288.63,326.86 287.65,327.58 287.65,327.58 287.65,327.58 287.65,327.58 287.24,327.35 286.48,326.99 285.94,326.82 285.2,326.72 284.01,326.6 283.48,326.44 282.48,326 278.71,324.23 278.22,323.95 277.83,323.65 277.18,323.01 276.74,322.65 276.25,322.34 275.75,322.15 275.24,322.1 274.67,322.17 273.65,322.34 273.13,322.22 272.7,321.92 272.36,321.54 272.28,321.17 272.62,320.25 272.77,319.73 272.71,319.29 272.36,318.95 271.86,318.77 271.22,318.72 269.73,318.69 269.24,318.59 268.93,318.33 268.67,317.84 267.89,315.96 267.77,315.48 267.92,315.2 268.51,315.01 268.91,314.75 269.07,314.39 269.03,313.94 268.78,313.47 267.7,312.19 267.7,312.19 267.7,312.19 267.7,312.19 268.57,312.47 269.21,312.37 270.65,311.25 271.02,310.15 272.23,308.94 273.39,308.4 274.25,309.04 275.09,309.13 275.39,310.16 275.67,311.27 277.88,312.55 282.19,314.62 282.19,314.62 285.48,316.14 288.73,319.95 291.99,325.32 291.99,325.32" vector-effect="non-scaling-stroke"></path></g>
<g id="34_ataşehir" name="ataşehir"  data-type="ilce" data-textpath="M282.19,314.62 Q296.72,316.67 317.82,319.87" data-textpathlength="36.01" data-vectorcenter="296.72,316.67"><path d="M312.86,315.74 312.86,315.74 315.84,317.65 317.33,319.5 317.82,319.87 317.82,319.87 317.82,319.87 316.78,320.52 316.04,320.64 315.8,319.97 315.45,319.94 314.56,320.41 314.48,319.14 314.22,318.29 313.62,318.7 312.19,319.03 310.85,319.82 310.17,320.5 308.96,319.52 307.81,319.8 306.93,319.11 306.11,318.84 305.13,318.4 304.48,318.82 303.63,319.22 302.9,320.27 301.25,320.93 300.36,320.91 299.45,320.61 298.72,320.56 297.5,320.85 296.78,320.85 295.99,320.93 294.87,322.15 294.23,323.05 293.48,324.21 292.59,325.09 291.99,325.32 291.99,325.32 291.99,325.32 288.73,319.95 285.48,316.14 282.19,314.62 282.19,314.62 282.19,314.62 282.25,312.4 282.87,310.22 285.51,309.19 286.2,309.13 286.2,309.13 286.87,309.27 289.26,310.59 292.83,313.4 294.09,313.6 297.12,313.22 300.09,313.49 303.28,313.89 307.15,314.54 309.93,315.27 312.86,315.74 312.86,315.74" vector-effect="non-scaling-stroke"></path></g>
<g id="34_ümraniye" name="ümraniye"  data-type="ilce" data-textpath="M284.89,291.48 Q297.23,305 312.86,315.74" data-textpathlength="37.03" data-vectorcenter="297.23,305"><path d="M299.08,298.65 299.08,298.65 299.12,299.61 299.23,300.66 300.77,300.53 302.08,300.45 303.64,300.69 305.22,301.24 306.68,302.17 307.82,303.28 309.14,304.84 310.29,307.04 312.12,307.66 313.21,307.78 313.21,307.78 313.21,307.78 312.23,308.98 311.12,309.83 312.2,310.91 312.94,313.47 312.88,314.63 312.86,315.74 312.86,315.74 312.86,315.74 309.93,315.27 307.15,314.54 303.28,313.89 300.09,313.49 297.12,313.22 294.09,313.6 292.83,313.4 289.26,310.59 286.87,309.27 286.2,309.13 286.2,309.13 286.2,309.13 285.99,307.99 285.02,306.3 284.74,304.51 284.09,303.26 285.08,302.29 285.83,301.12 286.59,300.18 286.59,298.92 286.3,297.28 285.95,295.98 285.71,294.83 284.66,293.99 285.29,292.84 284.86,291.71 284.89,291.48 284.89,291.48 284.89,291.48 286.31,291.22 287.51,291.28 288.32,291.48 288.04,291.7 288.56,292.57 289.83,292.6 291.51,292.87 292.76,293.53 293.72,294.65 294.99,295.63 295.96,296.03 297.39,295.16 298.16,295.6 298.23,296.71 298.98,297.7 299.08,298.65 299.08,298.65" vector-effect="non-scaling-stroke"></path></g>
<g id="34_maltepe" name="maltepe"  data-type="ilce" data-textpath="M287.65,327.58 Q304.78,329.24 318.92,329.51" data-textpathlength="31.33" data-vectorcenter="304.78,329.24"><path d="M317.82,319.87 317.82,319.87 316.78,320.52 316.04,320.64 315.8,319.97 315.45,319.94 314.56,320.41 314.48,319.14 314.22,318.29 313.62,318.7 312.19,319.03 310.85,319.82 310.17,320.5 308.96,319.52 307.81,319.8 306.93,319.11 306.11,318.84 305.13,318.4 304.48,318.82 303.63,319.22 302.9,320.27 301.25,320.93 300.36,320.91 299.45,320.61 298.72,320.56 297.5,320.85 296.78,320.85 295.99,320.93 294.87,322.15 294.23,323.05 293.48,324.21 292.59,325.09 291.99,325.32 291.99,325.32 291.99,325.32 291.08,325.67 289.7,326.2 288.63,326.86 287.65,327.58 287.65,327.58 287.65,327.58 287.65,327.58 288.18,327.99 291.08,330.65 291.57,331.17 292.16,332.01 295.49,337.04 296.74,339.14 298.12,341.33 298.54,341.9 298.83,342.21 298.83,342.21 298.83,342.21 299.29,341.46 299.49,340.3 300.94,339.78 301.87,340.48 302.83,340.84 304.31,340.07 303.74,339.91 305.16,339.24 306.19,338.6 308.05,338.22 309.81,337.5 311.02,337.46 311.84,337.32 312.57,337.35 313.38,337.43 314.45,336.72 314.7,337.53 315.54,337.19 316.14,336.64 316.38,335.33 317.09,332.61 318.92,329.51 318.92,329.51 318.92,329.51 318.92,329.51 318.67,327.77 317.43,325.75 316.58,324.38 317.2,322.97 318.14,321.37 317.82,319.87" vector-effect="non-scaling-stroke"></path></g>
<g id="34_kartal" name="kartal"  data-type="ilce" data-textpath="M298.83,342.21 Q316.82,339.94 328.84,334.25" data-textpathlength="31.05" data-vectorcenter="316.82,339.94"><path d="M327.04,327.85 327.22,328.5 328,331.78 328.84,334.25 328.84,334.25 328.84,334.25 328.27,334.73 327.64,336.26 327.02,337.48 325.79,338.43 326.26,339.54 326,339.96 326.42,341.99 326.73,344.03 325.56,344.81 324.19,345.53 323.34,346.3 320.66,346.19 319.9,347.6 319.65,349.07 318.8,351.3 318.8,351.3 318.8,351.3 318.23,350.98 316.82,350.21 316.16,349.91 312.82,348.77 312.26,348.63 311.4,348.56 310.86,348.43 310.06,348.09 308.47,347.35 307.84,346.97 305.55,345.39 303.49,344.17 302.84,343.81 302.31,343.63 301.81,343.64 301.44,343.8 301.03,343.97 300.62,343.83 300.2,343.53 299.78,343.16 298.83,342.21 298.83,342.21 298.83,342.21 298.83,342.21 299.29,341.46 299.49,340.3 300.94,339.78 301.87,340.48 302.83,340.84 304.31,340.07 303.74,339.91 305.16,339.24 306.19,338.6 308.05,338.22 309.81,337.5 311.02,337.46 311.84,337.32 312.57,337.35 313.38,337.43 314.45,336.72 314.7,337.53 315.54,337.19 316.14,336.64 316.38,335.33 317.09,332.61 318.92,329.51 318.92,329.51 318.92,329.51 320.17,327.65 321.42,327.33 322.14,328.09 322.28,328.46 323.11,328.51 325.24,328.34 327.04,327.85 327.04,327.85" vector-effect="non-scaling-stroke"></path></g>
<g id="34_pendik" name="pendik"  data-type="ilce" data-textpath="M321.8,353.42 Q353.89,325.27 391.48,300.82" data-textpathlength="87.3" data-vectorcenter="353.89,325.27"><path d="M337.03,311.45 337.56,310 338.47,308.87 339.2,307.9 340.19,307.17 341.82,307.17 343.83,307 348.04,306.7 351.45,306.92 353.35,304.85 355.83,303.93 356.81,302.8 355.81,299.48 355.81,299.48 355.81,299.48 356.42,298.92 357.08,297.95 355.9,296.57 355.68,295.28 356.43,293.72 359.98,294.42 359.98,294.42 359.98,294.42 359.98,294.42 359.89,300.03 360.57,301.36 364.05,303.56 366.63,304.56 369.58,303.74 371.98,305.03 374.01,305.78 373.5,306.95 373.53,307.46 374.82,307.98 374.72,309.29 375.19,309.32 375.94,309.32 375.13,310.79 375.08,311.47 376.37,312.76 376.46,313.27 377.79,312.76 379.1,312.31 380.68,311.04 382.56,309.61 385.3,307.26 387.78,304.44 389.13,301.81 391.48,300.82 391.62,301.44 392.05,301.87 392.44,301.93 392.44,301.93 392.44,301.93 392.44,301.93 391.79,305.19 391.8,306.9 393.21,313.16 392.55,315.27 389.77,318.55 387.38,323.51 386.31,325.68 383.4,327.5 383.23,327.74 383.23,327.74 382.31,327.92 380.97,326.91 380.29,325.98 379.83,325.15 380.12,323.81 380.23,322.57 380.51,321.54 380.25,320.42 380.28,319.69 379.46,318.95 378.14,319.93 377,320.01 375.81,320.03 374.8,320.1 373.47,320.01 372.25,320.49 369.21,322.52 367.36,325.41 364.99,326.93 361.52,328.8 358.54,331.09 356.09,332.3 354.75,333.04 351.27,333.76 350.24,335.07 349.85,336.95 350.29,338.82 349.36,340.14 348.05,340.95 347.59,342.94 347.12,347.11 345.64,349.57 343.56,351.37 342.3,352.13 343.36,352.48 343.56,353.58 344.22,354.84 342.95,356.61 341.88,356.89 340.32,355.89 339.64,356.85 338.96,357.58 338.14,358.57 336.36,358.9 336.36,358.9 336.36,358.9 336.15,358.81 335.45,358.65 332.47,358.2 331.75,358.04 331.27,357.82 330.95,357.52 330.88,357.15 330.69,356.72 330.19,356.04 329.45,355.15 329.04,354.75 328.45,354.31 326.86,353.24 326.21,352.89 325.13,352.39 324.64,352.21 324.25,352.26 324,352.64 323.65,353.33 323.28,353.66 322.8,353.73 322.28,353.62 321.8,353.42 321.34,353.11 320.7,352.52 320.25,352.16 318.8,351.3 318.8,351.3 318.8,351.3 318.8,351.3 319.65,349.07 319.9,347.6 320.66,346.19 323.34,346.3 324.19,345.53 325.56,344.81 326.73,344.03 326.42,341.99 326,339.96 326.26,339.54 325.79,338.43 327.02,337.48 327.64,336.26 328.27,334.73 328.84,334.25 328.84,334.25 328.84,334.25 331.97,333.6 333.65,333.44 334.66,333.83 337.73,332.49 340.4,331.19 342.16,329.42 342.95,327.97 343.46,325.69 342.42,325.22 341.12,325.36 340.25,323.63 339.34,322.42 338.66,321.55 337.72,319.76 337.72,317.71 337.26,314.97 337.25,313.07 337.03,311.45 337.03,311.45" vector-effect="non-scaling-stroke"></path></g>
<g id="34_tuzla" name="tuzla"  data-type="ilce" data-textpath="M329.34,374.78 Q359.26,346.82 380.28,319.69" data-textpathlength="75.03" data-vectorcenter="359.26,346.82"><path d="M369.3,352.25 367.72,353.35 365.66,354.81 363.2,356.42 362.03,357.09 360.96,357.62 360.26,357.87 359.54,358.02 357.91,358.47 356.33,360.15 356.61,360.66 357.82,363.31 358.62,364.21 358.33,365.46 357.75,366.2 357.55,366.34 357.45,366.76 357.08,367.6 356.7,368.76 356.89,369.32 356.78,370.09 356.83,370.37 356.39,371.14 356.39,371.14 356.39,371.14 356.39,371.14 353.93,368.95 352.16,370.54 350.72,372.97 350.72,372.97 350.72,372.97 349.67,372.13 348.72,371.45 347.87,370.92 347.15,370.57 346.63,370.4 345.94,370.26 345.41,370.23 344.94,370.3 344.56,370.6 344.06,371.28 343.67,371.69 343.22,372.04 342.8,372.27 342.33,372.31 341.85,372.11 341.21,371.64 340.73,371.34 340.19,371.19 339.62,371.12 339.03,371.1 338.31,371.18 334.33,371.89 333.34,372.13 331.82,372.59 331.34,372.8 330.96,373.08 330.82,373.44 330.92,373.79 331.12,374.3 330.96,374.66 330.53,374.94 330.02,375.12 329.58,375.09 329.34,374.78 329.15,374.12 328.75,372.32 328.81,371.88 329.18,371.71 329.84,371.66 331.31,371.64 331.79,371.56 332.27,371.29 333.25,370.49 333.99,369.81 334.65,369.02 334.97,368.54 335.12,368.01 335.11,367.49 334.94,366.99 334.66,366.54 334.27,366.23 333.5,366.06 333,365.94 332.52,365.66 332.09,365.27 331.75,364.81 331.5,364.31 331.35,363.79 331.4,363.44 331.65,363.03 332.08,362.65 332.54,362.39 333,362.48 333.4,362.82 333.64,363.29 333.79,363.97 333.95,364.68 334.28,364.93 334.71,364.77 335.27,364.36 337.42,362.55 337.82,362.15 338.02,361.71 338,361.25 337.77,360.75 337.13,359.77 336.7,359.19 336.36,358.9 336.36,358.9 336.36,358.9 336.36,358.9 338.14,358.57 338.96,357.58 339.64,356.85 340.32,355.89 341.88,356.89 342.95,356.61 344.22,354.84 343.56,353.58 343.36,352.48 342.3,352.13 343.56,351.37 345.64,349.57 347.12,347.11 347.59,342.94 348.05,340.95 349.36,340.14 350.29,338.82 349.85,336.95 350.24,335.07 351.27,333.76 354.75,333.04 356.09,332.3 358.54,331.09 361.52,328.8 364.99,326.93 367.36,325.41 369.21,322.52 372.25,320.49 373.47,320.01 374.8,320.1 375.81,320.03 377,320.01 378.14,319.93 379.46,318.95 380.28,319.69 380.25,320.42 380.51,321.54 380.23,322.57 380.12,323.81 379.83,325.15 380.29,325.98 380.97,326.91 382.31,327.92 383.23,327.74 383.23,327.74 383.23,327.74 381.25,331.33 380.81,334.59 380.52,340.41 377.49,344.39 375.6,347.78 371.81,350.11 369.4,352.17 369.3,352.25" vector-effect="non-scaling-stroke"></path></g>
<g id="34_sultanbeyli" name="sultanbeyli"  data-type="ilce" data-textpath="M328.84,334.25 Q333.78,323.49 337.03,311.45" data-textpathlength="24.23" data-vectorcenter="333.78,323.49"><path d="M337.03,311.45 337.03,311.45 337.25,313.07 337.26,314.97 337.72,317.71 337.72,319.76 338.66,321.55 339.34,322.42 340.25,323.63 341.12,325.36 342.42,325.22 343.46,325.69 342.95,327.97 342.16,329.42 340.4,331.19 337.73,332.49 334.66,333.83 333.65,333.44 331.97,333.6 328.84,334.25 328.84,334.25 328.84,334.25 328.84,334.25 328,331.78 327.22,328.5 327.04,327.85 327.04,327.85 327.04,327.85 327.48,325.92 326.8,324.34 326.24,323.06 327.03,321 328.06,319.79 328.31,318.41 328.72,317.52 328.78,315.87 329.39,314.29 329.8,312.9 330.04,311.54 330.92,310.6 336.32,311.27 337.03,311.45" vector-effect="non-scaling-stroke"></path></g>
<g id="34_sancaktepe" name="sancaktepe"  data-type="ilce" data-textpath="M317.43,325.75 Q331.24,309.66 355.81,299.48" data-textpathlength="46.51" data-vectorcenter="331.24,309.66"><path d="M313.21,307.78 313.21,307.78 312.23,308.98 311.12,309.83 312.2,310.91 312.94,313.47 312.88,314.63 312.86,315.74 312.86,315.74 312.86,315.74 315.84,317.65 317.33,319.5 317.82,319.87 317.82,319.87 318.14,321.37 317.2,322.97 316.58,324.38 317.43,325.75 318.67,327.77 318.92,329.51 318.92,329.51 318.92,329.51 320.17,327.65 321.42,327.33 322.14,328.09 322.28,328.46 323.11,328.51 325.24,328.34 327.04,327.85 327.04,327.85 327.04,327.85 327.04,327.85 327.48,325.92 326.8,324.34 326.24,323.06 327.03,321 328.06,319.79 328.31,318.41 328.72,317.52 328.78,315.87 329.39,314.29 329.8,312.9 330.04,311.54 330.92,310.6 336.32,311.27 337.03,311.45 337.03,311.45 337.56,310 338.47,308.87 339.2,307.9 340.19,307.17 341.82,307.17 343.83,307 348.04,306.7 351.45,306.92 353.35,304.85 355.83,303.93 356.81,302.8 355.81,299.48 355.81,299.48 355.81,299.48 355.81,299.48 354.4,299.3 353.13,299.02 351.59,299.04 350.43,298.64 349.72,298.43 348.37,296.81 346.11,296.01 343.25,296.81 341.23,296.78 337.46,295.41 336.44,296.45 335.36,297.96 333.72,298.88 333.11,300.78 330.82,302.96 328.43,303.14 327.25,303.46 326.83,304.2 326.55,305.19 324.82,305.06 323.1,306.92 319.76,306.88 318.11,307.12 314.07,307.8 313.21,307.78" vector-effect="non-scaling-stroke"></path></g>
<g id="34_çekmeköy" name="çekmeköy"  data-type="ilce" data-textpath="M299.08,298.65 Q335.95,288.47 366.34,280.21" data-textpathlength="69.74" data-vectorcenter="335.95,288.47"><path d="M299.08,298.65 299.08,298.65 299.12,299.61 299.23,300.66 300.77,300.53 302.08,300.45 303.64,300.69 305.22,301.24 306.68,302.17 307.82,303.28 309.14,304.84 310.29,307.04 312.12,307.66 313.21,307.78 313.21,307.78 314.07,307.8 318.11,307.12 319.76,306.88 323.1,306.92 324.82,305.06 326.55,305.19 326.83,304.2 327.25,303.46 328.43,303.14 330.82,302.96 333.11,300.78 333.72,298.88 335.36,297.96 336.44,296.45 337.46,295.41 341.23,296.78 343.25,296.81 346.11,296.01 348.37,296.81 349.72,298.43 350.43,298.64 351.59,299.04 353.13,299.02 354.4,299.3 355.81,299.48 355.81,299.48 355.81,299.48 356.42,298.92 357.08,297.95 355.9,296.57 355.68,295.28 356.43,293.72 359.98,294.42 359.98,294.42 359.98,294.42 359.98,294.42 361.46,290.99 363.37,289.13 363.2,288.64 364.09,287.75 364.6,286.9 364.72,286.06 365.97,285.18 365.03,284.49 363.49,283.63 363.98,283 364.86,282.02 366.28,281.54 366.34,280.21 365.29,279.89 363.64,278.62 362.56,277.87 361.62,277.29 361.46,276.28 360.96,273.47 359.7,272.31 358.02,272.57 355.86,272.07 355.86,272.07 355.86,272.07 354.63,272.18 353.43,271.72 352.6,270.89 351.4,270.96 350.56,271.4 349.46,271.58 348.33,271.82 347.11,271.66 345.71,270.71 344.89,271.05 343.63,271.9 342.45,271.64 340.97,271.5 339.65,270.99 338.49,270.42 337.8,270.09 336.63,269.99 336.38,271.28 335.94,272.74 335.34,273.43 334.08,273.45 332.99,273.92 331.6,274.55 330.6,274.36 329.72,274.66 328.8,274.95 328.37,275.61 328.02,276.4 327.52,277.26 327.49,278.32 326.52,279.14 325.7,278.9 324.54,278.92 323.74,277.18 322.69,277.47 320.93,278.57 320.43,279.46 320.69,280.97 319.43,282.15 318.32,282.95 317.01,283.63 316.41,284.8 316.06,286.07 315.78,287.29 315.43,288.5 315.9,290.08 316.1,291.31 317.19,292.82 316.91,293.79 315.27,294.39 314.08,294.94 312.54,294.51 309.28,294.75 307.03,294.46 306.44,294.74 305.41,295.13 304.34,295.68 303.14,296.26 302.09,296.44 301.49,296.81 300.41,296.8 299.71,297.66 299.08,298.65 299.08,298.65" vector-effect="non-scaling-stroke"></path></g>
<g id="34_beykoz" name="beykoz"  data-type="ilce" data-textpath="M284.61,291.37 Q314.16,265.27 348.48,243.23" data-textpathlength="79.98" data-vectorcenter="314.16,265.27"><path d="M280.05,287.06 280.05,287.06 282.27,289.78 283.25,290.48 284.61,291.37 284.89,291.48 284.89,291.48 284.89,291.48 286.31,291.22 287.51,291.28 288.32,291.48 288.04,291.7 288.56,292.57 289.83,292.6 291.51,292.87 292.76,293.53 293.72,294.65 294.99,295.63 295.96,296.03 297.39,295.16 298.16,295.6 298.23,296.71 298.98,297.7 299.08,298.65 299.08,298.65 299.08,298.65 299.08,298.65 299.71,297.66 300.41,296.8 301.49,296.81 302.09,296.44 303.14,296.26 304.34,295.68 305.41,295.13 306.44,294.74 307.03,294.46 309.28,294.75 312.54,294.51 314.08,294.94 315.27,294.39 316.91,293.79 317.19,292.82 316.1,291.31 315.9,290.08 315.43,288.5 315.78,287.29 316.06,286.07 316.41,284.8 317.01,283.63 318.32,282.95 319.43,282.15 320.69,280.97 320.43,279.46 320.93,278.57 322.69,277.47 323.74,277.18 324.54,278.92 325.7,278.9 326.52,279.14 327.49,278.32 327.52,277.26 328.02,276.4 328.37,275.61 328.8,274.95 329.72,274.66 330.6,274.36 331.6,274.55 332.99,273.92 334.08,273.45 335.34,273.43 335.94,272.74 336.38,271.28 336.63,269.99 337.8,270.09 338.49,270.42 339.65,270.99 340.97,271.5 342.45,271.64 343.63,271.9 344.89,271.05 345.71,270.71 347.11,271.66 348.33,271.82 349.46,271.58 350.56,271.4 351.4,270.96 352.6,270.89 353.43,271.72 354.63,272.18 355.86,272.07 355.86,272.07 355.86,272.06 356.72,270.15 356.83,267.48 354.78,266.37 354.68,265.13 354.06,263.36 352.25,263.45 351.98,262.66 350.67,261.23 348.69,261.48 347.91,261.74 347.8,260.39 346.64,258.9 346.12,257.27 346.17,254.53 345.67,253.76 345.95,251.97 345.89,251.18 346.35,249.44 348.02,247.38 348.64,246.04 348.31,245.54 348.02,244.74 348.48,243.23 348.48,243.23 348.48,243.23 348.48,243.23 339.43,241.18 337.89,240.76 336.95,240.43 335.21,239.78 332.25,238.8 331.67,238.64 330.33,238.36 329.79,238.19 329.43,237.87 329.15,237.25 328.78,237.1 328.28,237.16 327.6,237.44 326.94,237.78 326.49,238.11 325.84,238.72 325.41,238.97 324.85,239.03 322.34,238.94 321.6,238.86 320.28,238.59 319.75,238.53 319.39,238.75 319.11,239.51 318.93,239.91 318.62,240.28 318.26,240.57 317.86,240.8 317.38,240.99 316.74,241.14 315.45,241.31 313.67,241.45 312.34,241.49 311.75,241.45 310.71,241.26 309.38,240.96 307.96,240.51 307.39,240.4 306.81,240.36 306.29,240.39 305.83,240.53 305.32,240.82 303.69,241.89 300.64,243.62 298.06,244.96 297.44,245.31 296.62,245.94 294.71,247.56 294.37,247.96 294.21,248.42 294.21,249.38 294.19,250.09 294.09,250.95 293.92,251.5 293.65,251.99 293.34,252.44 292.96,252.85 292.48,253.2 291.33,253.9 290.79,254.13 290.34,254.18 289.63,254.13 289.08,254.13 288.39,254.18 287.44,254.39 286.77,254.57 286.29,254.78 286.03,255.12 286,255.58 286.04,256.56 285.96,257.11 285.67,257.58 285.22,257.92 284.68,258.16 283.68,258.45 283.16,258.67 282.74,258.95 282.47,259.3 282.35,259.8 282.38,260.31 282.58,260.82 282.99,261.41 283.26,261.88 283.37,262.39 283.35,262.93 283.19,263.45 282.57,264.58 282.26,265.22 282.1,265.74 282.11,266.16 282.32,266.51 282.74,266.86 283.81,267.56 284.45,267.9 285.69,268.39 286.2,268.65 286.62,268.99 287.1,269.49 287.44,269.94 288.19,271.19 288.41,271.71 288.49,272.24 288.48,272.91 288.39,273.7 288.25,274.2 287.97,274.62 287.54,274.99 284.33,277.07 283.45,277.59 282.53,277.94 282.02,278.18 281.31,278.67 280.76,279.11 280.42,279.53 280.23,280.06 280.13,280.62 280.14,281.09 280.41,282.3 280.51,282.85 280.56,283.88 280.54,285.35 280.46,285.9 280.32,286.42 280.12,286.91 280.05,287.06" vector-effect="non-scaling-stroke"></path></g>
<g id="34_şile" name="şile"  data-type="ilce" data-textpath="M345.67,253.76 Q420.61,281.41 500,280.73" data-textpathlength="156.67" data-vectorcenter="420.61,281.41"><path d="M454.74,301.87 455.04,301.91 456.95,303.34 459.32,304.53 461.09,304.85 463.39,305.87 464.53,306.52 468.05,307.94 468.05,307.94 468.05,307.94 468.05,307.94 471.42,309.58 473.62,310.06 475.39,309.97 477.06,309.29 481.34,307.88 481.34,307.88 481.34,307.88 482.85,306.67 485.13,304.82 486.95,301.14 490.24,294.54 492.38,289.44 492.61,286.9 495.14,284.32 496.58,283.86 498.18,283.86 499.6,282.79 500,280.73 499.66,279.49 498.1,274.82 498.12,271.44 497.7,266.35 497.7,266.35 497.7,266.35 497.7,266.35 494.53,266.14 493.44,266.17 492.29,266.32 490.71,266.58 489.76,266.83 489.2,266.88 488.47,266.79 484.91,266.18 484.32,266.14 483.77,266.18 483.24,266.29 482.76,266.55 482.11,267.08 481.65,267.37 481.09,267.52 480.49,267.58 479.89,267.56 477.55,267.1 475.22,266.62 474.67,266.42 474.16,266.11 472.93,265.23 471.66,264.45 471,264.1 469.89,263.65 464.1,261.55 461.77,260.87 460.88,260.66 460.38,260.6 459.47,260.63 454.28,260.95 453.72,261.04 453.26,261.2 452.79,261.5 452.29,261.95 451.83,262.21 451.4,262.27 450.84,262.24 446.45,261.34 445.74,261.16 445.21,260.94 444.61,260.61 444.16,260.29 443.68,259.8 443.24,259.5 442.74,259.43 441.87,259.51 439.95,259.79 438.53,260.04 437.95,260.05 437.06,259.92 432.9,259.16 431.73,258.86 427.36,257.62 426.7,257.37 425.84,256.94 424.17,255.95 422.35,255.01 421.54,254.64 420.99,254.51 420.42,254.52 419.88,254.63 419.46,254.88 419.05,255.44 418.35,256.18 417.81,256.68 417.32,256.99 416.79,257.24 416.24,257.41 415.66,257.44 411.92,257.16 409.46,256.88 408.59,256.74 407.58,256.47 403.55,255.34 394.55,253.12 391.23,252.37 384.76,250.26 383.02,249.77 378.07,248.55 370.77,246.1 369.61,245.77 367.14,245.17 366.59,245 365.28,244.48 364.48,244.12 363.99,243.82 363.55,243.45 363.04,243.35 362.5,243.43 361.25,243.76 360.37,243.88 356.2,244.31 355.61,244.32 354.55,244.21 352.28,243.89 348.48,243.23 348.48,243.23 348.48,243.23 348.48,243.23 348.02,244.74 348.31,245.54 348.64,246.04 348.02,247.38 346.35,249.44 345.89,251.18 345.95,251.97 345.67,253.76 346.17,254.53 346.12,257.27 346.64,258.9 347.8,260.39 347.91,261.74 348.69,261.48 350.67,261.23 351.98,262.66 352.25,263.45 354.06,263.36 354.68,265.13 354.78,266.37 356.83,267.48 356.72,270.15 355.86,272.06 355.86,272.07 355.86,272.07 355.86,272.07 358.02,272.57 359.7,272.31 360.96,273.47 361.46,276.28 361.62,277.29 362.56,277.87 363.64,278.62 365.29,279.89 366.34,280.21 366.28,281.54 364.86,282.02 363.98,283 363.49,283.63 365.03,284.49 365.97,285.18 364.72,286.06 364.6,286.9 364.09,287.75 363.2,288.64 363.37,289.13 361.46,290.99 359.98,294.42 359.98,294.42 359.98,294.42 359.98,294.42 359.89,300.03 360.57,301.36 364.05,303.56 366.63,304.56 369.58,303.74 371.98,305.03 374.01,305.78 373.5,306.95 373.53,307.46 374.82,307.98 374.72,309.29 375.19,309.32 375.94,309.32 375.13,310.79 375.08,311.47 376.37,312.76 376.46,313.27 377.79,312.76 379.1,312.31 380.68,311.04 382.56,309.61 385.3,307.26 387.78,304.44 389.13,301.81 391.48,300.82 391.62,301.44 392.05,301.87 392.44,301.93 392.44,301.93 392.44,301.93 392.44,301.93 393.15,301.08 394,299.81 393.85,299.44 393.86,298.87 394.06,298.73 394.22,298.71 394.64,299.3 394.72,299.32 394.85,298.62 395.17,298.48 395.45,298.46 396.05,297.96 396.23,297.96 396.86,298.71 397.31,298.89 397.54,298.93 398.35,300.09 398.37,300.81 398.11,301.12 398.16,301.17 398.43,301.26 398.55,301.38 398.6,301.87 399.08,302.21 399.33,302.22 399.67,301.69 400.17,301.29 400.27,301.31 401.14,301.51 402,301.58 402.51,301.6 403.99,301.86 404.5,301.93 405.53,302.24 407.1,302.74 408,303.1 409.19,303.64 413.26,305.8 416.43,310.36 418.99,313.26 421.37,318.17 423.95,321.19 425.85,322.37 426.57,322.42 428.35,322.63 429.53,322.68 430.67,322.54 432.46,322.61 433.56,322.78 434.6,322.87 436.54,322.18 440.77,318.55 443.45,314.78 445.45,312.05 445.92,308.72 447.95,304.05 450.16,302.74 452.55,302.22 453.23,301.93 454.12,301.77 454.74,301.87" vector-effect="non-scaling-stroke"></path></g>
<g id="34_adalar" name="adalar"  data-type="ilce" data-textpath="M273.34,341.06 Q288.62,353.65 301.14,361.07" data-textpathlength="34.25" data-vectorcenter="288.62,353.65"><path d="M274.71,343.37 274.71,343.37 276.14,343.6 277.12,343.13 277.64,342.29 277.46,341.27 277,340.31 276.12,339.82 274.87,339.87 273.87,340.17 273.34,341.06 273.8,341.99 274.71,343.37 M278.74,352.74 278.74,352.74 280.02,352.48 280.85,351.73 281.13,350.7 281.01,349.73 280.3,349.08 279.08,348.79 277.99,348.66 277.22,349.27 276.72,350.62 276.71,351.63 277.5,352.29 278.74,352.74 278.74,352.74 M283.38,352.42 283.38,352.42 283.03,352.81 282.75,353.27 282.63,353.74 282.67,354.18 282.96,354.5 283.61,354.67 284.63,354.75 284.68,354.19 284.9,353.58 285.27,353.42 285.67,353.58 285.85,354.02 286.07,354.3 286.57,354.37 287.16,354.33 287.77,354.23 288.32,354.02 288.78,353.71 289.16,353.35 289.44,352.91 289.6,352.42 289.56,351.89 289.36,351.2 288.83,349.71 288.54,349.28 288.07,349.12 287.52,349.12 287.02,349.34 286.33,349.89 283.58,352.23 283.38,352.42 M293.15,353.91 293.15,353.91 292.89,354.32 292.71,354.83 292.11,357.5 292.04,358.06 292.04,358.91 292.14,362.43 292.25,363.03 292.59,363.64 292.96,363.94 293.54,364.22 294.21,364.32 294.77,364.29 295.22,364.13 295.44,363.72 295.59,362.93 295.83,361.24 295.83,360.68 295.69,359.87 295.66,359.32 295.75,358.77 295.95,358.27 296.34,357.73 298.01,355.67 298.56,354.88 298.9,354.3 299.02,353.84 298.93,353.38 298.63,352.91 298.21,352.56 297.71,352.36 297.19,352.24 296.68,352.25 296,352.37 295.3,352.56 294.64,352.83 294.14,353.11 293.54,353.54 293.15,353.91 293.15,353.91 M300.25,361.38 300.25,361.38 301.14,361.07 300.84,360.02 300.31,359.02 299.52,359.18 299.3,360.09 299.78,360.97 300.25,361.38" vector-effect="non-scaling-stroke"></path></g>
</g>
</svg>