<svg version="1.1" id="kibris"
  xmlns:svg="http://www.w3.org/2000/svg"
  xmlns="http://www.w3.org/2000/svg"
  xmlns:xlink="http://www.w3.org/1999/xlink" x="0px" y="0px" width="1275.57px" height="760.619px" viewBox="0 0 1275.57 760.619" xml:space="preserve">

<defs>
  <style>
    text{
      font-family: Poppins, monospace;
      pointer-events: none;
      font-weight: 500;
      font-size: 1em;
      fill: black;
    }
  </style>
</defs>
  <g id="other">
    <rect x="0" y="0" fill="#C6ECFF" width="1275.57" height="760.619"/>
    <polygon id="kibris-coastline" fill="gray" stroke="black" stroke-width="0" stroke-linejoin="round" stroke-miterlimit="3.8637" points="
		932.561,434.673 931.564,433.436 931.223,432.922 929.136,429.739 918.52,413.574 898.138,397.306 890.752,389.805 
		885.489,382.805 884.806,381.31 883.718,378.939 880.555,372.058 875.056,367.832 870.566,362.928 870.357,362.64 861.118,350.07 
		859.582,347.971 857.406,346.705 852.785,346.674 852.352,346.237 852.092,345.965 852.248,345.814 854.467,343.612 
		856.945,342.99 857.995,340.563 853.284,326.934 853.244,326.449 852.89,322.09 856.749,302.32 857.221,299.906 863.769,286.608 
		867.811,283.288 872.234,274.597 876.026,269.041 879.662,265.512 880.293,265.135 886.841,261.164 892.352,260.395 
		897.602,259.656 906.748,262.478 915.462,262.312 917.168,262.13 921.119,261.678 927.613,259.626 930.684,257.738 
		932.272,255.294 935.593,244.156 936.655,240.611 938.703,236.762 950.553,223.118 959.516,214.832 979.661,200.058 
		989.516,194.157 994.555,191.155 1039.503,171.173 1051.181,159.327 1057.272,153.169 1068.045,145.954 1080.644,140.794 
		1091.485,132.207 1093.859,129.234 1096.839,119.62 1099.331,119.016 1101.562,114.158 1102.205,112.783 1111.051,106.534 
		1112.048,106.037 1146.418,88.817 1151.419,89.497 1154.082,85.499 1164.082,83.823 1165.931,83.505 1168.399,82.282 
		1170.485,78.707 1170.498,77.997 1170.786,68.459 1172.926,65.879 1174.082,59.587 1175.184,58.139 1176.339,56.627 
		1179.159,54.636 1178.715,53.534 1173.452,55.632 1171.405,56.446 1165.013,56.101 1159.042,58.967 1148.465,66.21 
		1147.992,66.543 1144.056,67.571 1140.395,65.985 1138.319,66.936 1137.599,71.222 1135.616,74.3 1133.177,76.022 1124.723,76.881 
		1117.598,80.548 1108.321,78.073 1104.017,79.747 1094.869,88.003 1090.198,90.205 1088.558,90.116 1082.35,89.799 1079.739,90.66 
		1075.814,94.448 1068.413,95.02 1066.104,96.619 1062.481,103.895 1058.57,107.924 1056.34,108.407 1053.912,107.518 
		1052.076,107.835 1051.248,112.497 1049.489,114.445 1044.53,116.163 1040.58,119.455 1037.089,121.237 1032.43,121.13 
		1031.38,121.115 1026.733,123.68 1018.019,124.45 1014.385,127.906 1013.596,128.645 1011.892,129.67 1009.137,131.331 
		1008.453,131.739 1005.106,131.136 1001.209,132.69 999.62,130.26 996.917,131.891 993.348,132.041 988.873,130.049 
		985.474,128.539 982.982,128.902 982.114,133.235 982.036,133.686 979.425,137.171 974.544,140.131 973.886,140.991 
		968.336,148.157 957.785,159.251 948.875,163.779 939.621,166.585 933.152,171.912 916.197,180.32 889.4,193.646 883.927,195.395 
		876.052,196.649 862.037,201.809 849.661,205.538 848.98,205.749 846.539,206.49 829.086,211.769 820.962,210.909 816.158,212.645 
		803.638,211.257 794.913,211.438 789.414,212.584 779.058,217.549 761.579,225.956 755.792,231.239 746.79,235.932 
		732.547,240.441 729.9,241.273 721.37,242.588 716.605,242.588 713.653,241.726 713.193,241.877 695.739,247.642 676.263,249.514 
		666.527,252.653 659.244,252.532 654.691,253.891 645.765,254.978 642.577,254.131 641.869,253.934 615.61,255.069 
		603.615,253.708 597.881,255.007 588.286,251.778 574.285,250.162 571.003,249.183 563.642,246.993 560.321,248.911 
		557.828,249.183 551.869,247.008 549.745,246.993 544.823,248.76 542,248.035 539.363,245.937 533.209,245.018 529.443,241.864 
		508.445,244.64 502.736,242.965 483.63,237.396 480.597,237.562 476.805,240.399 471.109,242.465 466.162,243.748 459.428,243.99 
		451.621,241.938 443.564,238.028 440.597,237.32 433.959,237.985 431.924,238.181 419.719,231.631 403.972,221.79 393.315,216.658 
		389.301,216.01 388.76,217.912 390.756,224.175 391.425,230.378 391.228,236.097 391.111,239.645 392.108,242.828 395.967,247.1 
		397.566,251.386 398.75,263.186 398.734,275.17 396.898,289.642 396.261,292.55 394.023,302.44 391.988,311.527 384.063,335.716 
		381.884,338.72 376.556,342.357 364.444,350.598 355.534,355.742 352.712,356.906 345.481,357.449 340.98,357.223 335.364,354.175 
		329.851,352.756 322.633,347.566 314.601,345.905 305.809,340.819 303.513,338.071 298.723,337.619 289.63,334.887 
		287.935,334.391 279.458,334.148 271.558,330.496 267.385,329.498 261.69,329.212 252.725,333.379 248.919,331.869 246.15,332.035 
		243.04,336.774 242.568,337.499 240.404,338.63 237.725,338.585 235.639,338.539 227.595,342.039 226.281,342.613 225.469,342.765 
		224.026,343.022 222.241,343.355 219.098,341.517 217.411,340.531 214.603,339.96 213.094,341.045 212.793,346.191 
		211.414,349.269 207.031,353.135 202.581,357.058 199.472,361.629 191.27,380.373 186.125,387.934 184.538,389.686 
		179.143,395.617 174.38,399.315 163.383,407.839 152.975,411.734 144.001,413.56 139.655,413.574 131.401,412.475 123.974,410.195 
		115.825,405.093 106.874,397.91 93.935,385.127 92.176,383.995 91.796,383.754 87.714,381.144 84.683,381.219 83.502,383.165 
		82.859,385.988 82.307,388.492 80.823,402.709 80.928,403.54 81.704,409.395 91.533,423.128 94.577,430.433 95.063,431.261 
		97.099,434.673 98.635,437.268 98.794,437.541 102.153,447.562 99.791,453.22 100.985,457.008 97.992,459.331 97.442,462.609 
		106.273,473.67 108.203,478.544 106.05,485.305 102.612,489.047 101.653,490.073 102.126,492.928 106.208,496.579 113.097,502.722 
		116.772,511.852 119.581,514.297 122.823,513.603 124.632,514.975 127.389,514.93 130.079,517.632 131.812,518.478 134.581,519.85 
		136.759,522.703 137.244,531.425 141.313,542.291 141.378,548.178 141.39,549.023 143.937,553.369 144.712,556.81 143.374,565.896 
		146.601,568.807 150.104,568.084 152.363,568.447 155.998,571.464 160.408,578.18 164.699,577.547 167.427,578.873 
		180.603,590.782 183.595,592.291 183.766,592.382 185.919,593.454 188.596,596.155 192.743,593.408 193.203,593.363 
		197.703,592.972 199.685,594.297 203.492,596.864 208.478,596.803 219.304,600.123 224.03,601.332 233.556,607.247 
		237.598,609.752 239.986,611.684 243.162,614.279 249.527,617.011 254.972,618.304 257.926,619.004 271.942,624.391 
		278.346,625.885 284.265,628.06 288.569,629.628 291.719,629.689 296.194,625.931 300.512,625.674 304.107,626.579 307.611,625.99 
		313.162,622.565 314.24,620.982 318.176,619.111 331.457,617.45 335.342,618.716 345.303,614.384 351.982,616.241 357.888,614.145 
		370.801,617.011 374.239,619.427 378.071,623.819 378.543,623.833 382.808,623.922 381.025,626.897 386.668,632.812 
		391.759,640.509 392.099,641.521 395.802,652.387 398.544,656.236 400.472,661.608 400.564,665.108 397.573,667.403 
		397.086,668.701 396.902,669.185 397.52,670.648 398.648,670.028 400.801,668.836 403.399,668.428 408.018,668.928 
		411.064,669.244 415.867,666.86 419.055,665.276 424.186,667.479 429.816,667.419 432.166,668.474 438.858,671.508 
		442.284,671.825 443.544,670.994 444.344,669.079 443.936,666.86 441.378,663.902 435.722,657.336 433.412,653.972 
		431.654,649.081 431.103,642.849 430.722,638.638 431.419,633.1 432.939,631.122 434.344,625.568 437.494,621.388 445.814,616.045 
		454.752,608.047 461.811,603.398 469.095,600.243 469.292,599.355 470.105,599.686 488.61,593.392 488.924,593.349 
		497.179,591.914 552.836,595.838 554.895,595.22 554.901,595.203 556.76,589.997 558.412,588.411 564.553,585.711 567.416,585.303 
		575.354,587.266 578.609,588.066 583.819,585.154 587.507,585.214 595.132,581.048 599.868,581.168 601.654,580.445 
		610.841,573.85 619.685,571.313 621.981,570.09 622.796,569.654 631.85,564.855 637.625,560.433 642.599,557.791 648.033,556.389 
		662.285,555.392 665.157,550.609 671.287,549.792 674.987,545.612 679.225,543.891 682.257,539.516 684.803,535.863 
		688.359,533.796 699.751,533.085 713.255,534.762 715.039,533.674 718.085,522.779 721.26,520.741 729.87,508.2 729.894,503.626 
		729.909,499.823 731.313,494.391 730.354,484.581 731.497,474.65 736.824,462.02 741.536,456.917 749.148,451.787 752.992,450.096 
		759.293,449.039 760.696,448.799 792.664,448.362 808.556,451.198 809.686,451.394 815.053,453.131 821.248,457.945 
		827.809,464.358 829.042,465.551 833.281,467.346 834.568,467.904 838.084,467.346 843.07,464.735 843.215,464.629 
		846.851,461.551 851.995,458.743 852.114,458.563 856.221,452.376 866.155,448.511 877.836,447.833 879.16,447.122 
		879.883,446.731 882.979,443.094 885.866,443.078 892.86,445.614 897.809,444.633 901.706,446.202 904.737,445.841 
		910.473,445.161 916.628,449.493 920.211,449.945 932.848,457.34 933.492,457.446 933.844,457.506 934.567,457.628 
		936.076,457.189 938.295,456.54 938.595,456.451 938.871,456.843 940.302,458.865 942.285,459.152 944.62,456.042 943.688,454.625 
		943.334,454.111 938.819,453.191 934.763,446.262 938.623,442.099 	"/>
    <text x="350" y="480">Güney Kıbrıs Rum Yönetimi</text>
  </g>

  <g id="features">
    <g id="iskele">
      <path d="M1178.715,53.53 1179.155,54.64 1176.335,56.63 1175.185,58.14 1174.085,59.59 1172.925,65.88 
        1170.785,68.46 1170.495,78 1170.485,78.71 1168.395,82.28 1165.935,83.51 1164.085,83.82 1154.085,85.5 1151.415,89.5 
        1146.415,88.82 1112.045,106.04 1111.054,106.53 1102.205,112.78 1101.565,114.16 1099.335,119.02 1096.835,119.62 
        1093.855,129.23 1091.485,132.21 1080.645,140.79 1068.045,145.95 1057.275,153.17 1051.185,159.33 1039.505,171.17 
        994.554,191.15 989.515,194.16 979.665,200.06 959.515,214.83 950.554,223.12 938.705,236.76 936.655,240.61 935.594,244.16 
        932.275,255.29 930.685,257.74 927.615,259.63 921.115,261.68 917.165,262.13 915.465,262.31 906.745,262.48 897.605,259.66 
        892.355,260.39 886.844,261.16 880.295,265.14 879.665,265.51 876.025,269.04 872.235,274.6 867.815,283.29 863.765,286.61 
        857.225,299.91 854.285,299.48 848.955,299.48 842.285,306.14 830.285,310.14 826.285,308.81 824.955,303.48 819.615,310.14 
        816.955,296.81 815.615,290.14 807.615,290.14 807.615,279.48 814.285,270.14 804.955,271.48 800.955,267.48 795.615,263.48 
        794.285,254.14 795.615,248.81 802.285,242.14 807.615,236.81 811.615,232.81 811.615,223.48 811.615,212.14 816.155,212.64 
        820.965,210.91 829.085,211.77 846.535,206.49 848.985,205.75 849.665,205.54 862.035,201.81 876.054,196.65 883.925,195.39 
        889.405,193.65 916.195,180.32 933.155,171.91 939.625,166.59 948.875,163.78 957.785,159.25 968.335,148.16 973.885,140.99 
        974.545,140.13 979.425,137.17 982.035,133.69 982.115,133.23 982.985,128.9 985.475,128.54 988.875,130.05 993.344,132.04 
        996.915,131.89 999.615,130.26 1001.205,132.69 1005.105,131.14 1008.455,131.74 1009.135,131.33 1011.895,129.67 1013.594,128.64 
        1014.385,127.91 1018.015,124.45 1026.735,123.68 1031.375,121.12 1032.435,121.13 1037.085,121.24 1040.575,119.46 
        1044.535,116.16 1049.485,114.44 1051.245,112.5 1052.075,107.84 1053.915,107.52 1056.335,108.41 1058.575,107.92 
        1062.485,103.89 1066.105,96.62 1068.415,95.02 1075.815,94.45 1079.735,90.66 1082.355,89.8 1088.554,90.12 1090.195,90.21 
        1094.865,88 1104.015,79.75 1108.325,78.07 1117.594,80.55 1124.725,76.88 1133.175,76.02 1135.615,74.3 1137.594,71.22 
        1138.315,66.94 1140.395,65.98 1144.054,67.57 1147.995,66.54 1148.465,66.21 1159.045,58.97 1165.015,56.1 1171.405,56.45 
        1173.455,55.63z"/>
      <title>İskele</title>
      <text x="880" y="230" text-anchor="middle" dominant-baseline="middle" >İskele</text>
    </g>
    <g id="gazimağusa">
      <path d="M827.825,397.98c-1.74,2.18-5.68-0.72-10.38-3.67c-4.7-2.96-8.98,1.39-11.12,2.79
                c-2.13,1.4-6.24,6.57-7.21,7.97c-0.97,1.4-3.3,2.521-5.67,2.521s-7.61,4.51-7.61,4.51l-12.08-5.48l-11.3,8l-2.13-7.14l3.1-12.01
                l-3.34-1.94l-8.189,7.61l-3.11-1.74l-3.92,3.29l-0.2,11.54l-4.71,2.75c0,0-1.55-0.18-3.05-0.38l-0.65-11.94l-0.26-5.189
                c0,0-1.53-5.45-2.3-6.73c-0.76-1.27-0.25-4.93,1.02-7.479c1.28-2.561-1.779-4.351-3.569-4.351s-4.431-1.87-5.7-2.89
                c-1.28-1.02-3.58-3.83-4.68-5.62c-1.11-1.79-2.811-0.85-4.091,0.51c-1.279,1.36-2.89,0.77-4.17,0.51
                c-1.27-0.25-4.09-0.76-4.09-0.76s-2.04-1.62-3.91-3.92c-1.87-2.29-5.109-2.04-6.13-2.04c-1.02,0-2.89,0.77-2.89,0.77
                s-1.53,0.25-2.55-0.77c-1.03-1.02-6.73-5.19-8-5.7c-1.28-0.51-3.07-2.38-1.54-4.94c1.54-2.55,4.939-6.3,6.979-7.66
                c2.04-1.36,4.34-4.42,5.11-6.21c0.77-1.79,0.77-6.13,0.26-8.26c-0.51-2.12-3.33-8.94-3.84-9.78c-0.51-0.85-4.93-6.9-5.44-8
                c-0.51-1.11-2.38-3.92,1.53-4.94s6.47-1.53,7.49-1.53c1.02,0,2.46,0.34,2.38-1.28c-0.08-1.61-1.36-2.38-2.63-2.63
                c-1.28-0.26-3.58-0.77-4.09-2.05c-0.511-1.27-3.15-4.68-2.891-7.74c0.25-3.07,0-9.28,0-9.28l-2.06-2.68l-0.75-0.98l-1.79-4.08
                c0,0-0.59-3.41,3.06-3.92c3.66-0.51,9.971-2.3,10.811-2.81c0.85-0.51,8.6-5.95,10.38-6.97c1.79-1.03,10.479-5.45,13.11-6.22
                c2.64-0.76,9.109-0.76,10.38-2.04c1.279-1.28,7.489-3.75,8.51-5.11c1.03-1.36,0.85-3.15-1.271-3.15c-2.13,0-3.92,0.6-3.659-2.29
                c0.26-2.9,1.279-6.98,1.279-6.98l-0.06-0.19l10.59-3.35l9.01-4.69l5.78-5.28l17.479-8.41l10.36-4.97l5.5-1.14l8.72-0.18l7.98,0.88
                v11.34v9.33l-4,4l-5.33,5.33l-6.67,6.67l-1.33,5.33l1.33,9.34l5.34,4l4,4l9.33-1.34l-6.67,9.34v10.66h8l1.34,6.67l2.66,13.33
                l5.34-6.66l1.33,5.33l4,1.33l12-4l6.67-6.66h5.33l2.94,0.43l-0.48,2.41l-3.85,19.77l0.35,4.36l0.04,0.48l4.71,13.63l-1.05,2.43
                l-2.48,0.62l-2.22,2.2l-0.15,0.16l0.261,0.27l0.43,0.43l4.62,0.04l2.18,1.26l1.53,2.1l9.24,12.57l0.21,0.29l4.489,4.9l5.5,4.23
                l3.16,6.88l1.09,2.37l0.681,1.5l5.27,7l7.38,7.5l1.71,1.36l-0.14,0.18c0,0-5,0.25-5.88,0.25c-0.87,0-4.87-1.12-7.25-2.12
                c-2.37-1-7.75-0.63-8.87-0.38c-1.13,0.25-7.63,1.63-9.13,2.38s-8,0.12-9.62-0.13c-1.63-0.25-6.88-2.5-6.88-2.5l-0.28-0.18
                l1.96-3.03l3.3-3.1l1.021-3.351l-9.21-14.21l-4.271-0.19l1.16-2.37l-3.68-3.11l-5.29,1.56l2.14,9.36l-2.14,5.47l2.29,4.15
                c0,0-2.96,2.35-4.12,3.13C833.785,391.25,829.575,395.8,827.825,397.98z"/>
      <title>Gazimağusa</title>
      <text x="774" y="336" text-anchor="middle" dominant-baseline="middle" >Gazimağusa</text>
    </g>
    <g id="girne">
      <path d="M544.825,248.76l4.92-1.77l2.12,0.02l5.96,2.17l2.5-0.27l3.32-1.92l7.36,2.19l3.28,0.98l14,1.62l9.6,3.23
            l5.73-1.3l12,1.36l26.25-1.14l0.71,0.2l3.19,0.85l8.93-1.09l4.55-1.36l7.28,0.12l9.74-3.14l19.47-1.87l17.46-5.76l0.46-0.15
            l2.95,0.86h4.76l8.54-1.32l2.64-0.83l3.65-1.16l0.06,0.19c0,0-1.02,4.08-1.279,6.98c-0.261,2.89,1.529,2.29,3.659,2.29
            c2.12,0,2.301,1.79,1.271,3.15c-1.021,1.36-7.23,3.83-8.51,5.11c-1.271,1.28-7.74,1.28-10.38,2.04
            c-2.631,0.77-11.32,5.19-13.11,6.22c-1.78,1.02-9.53,6.46-10.38,6.97c-0.84,0.51-7.15,2.3-10.811,2.81
            c-3.649,0.51-3.06,3.92-3.06,3.92l1.79,4.08c0,0-3.66-1.27-5.7-1.27c-2.05,0-3.58,1.02-5.37,2.63c-1.79,1.62-4.68,0.51-4.93-1.36
            c-0.26-1.87-1.28-2.55-3.32-2.04c-2.05,0.51-3.41,1.53-3.41,1.53s-8.76,0-11.569-0.51c-2.811-0.51-6.21,1.02-6.21,1.02l-6.471,4.17
            l-6.209,5.96c0,0-6.13,7.23-6.98,9.02c-0.85,1.79-4.6,2.81-4.6,2.81h-6.21l-13.96-0.26c0,0-5.36,0-8,0.52
            c-2.63,0.51-6.72,0-9.27-1.03c-2.56-1.02-9.54-0.51-14.73,0.51c-5.19,1.03-9.02-2.81-10.3-4.08c-1.27-1.28-3.32-2.38-5.95-2.38
            c-2.64,0-6.98,2.38-7.75,3.4c-0.76,1.02-6.72,4.85-8.76,6.13c-2.05,1.28-5.62-0.77-6.73-2.81c-1.1-2.04-5.62-4.34-6.64-4.85
            c-1.02-0.51-4.42-0.85-6.72-0.85c-2.3,0-4.94-0.51-5.45-3.58c-0.51-3.06-2.55-1.53-3.32,0c-0.76,1.54-2.89,2.56-2.89,2.56
            l-3.32-2.81l-1.79,2.3l-0.25,2.38c0,0-2.38,0-3.66-0.6c-1.28-0.59-1.79-0.51-3.07,1.11c-1.27,1.61-2.89-0.51-4.16-1.62
            c-1.28-1.1-4.35-0.76-4.35-0.76l-4.68,0.51c0,0-5.19-0.51-6.46-0.51c-1.28,0-5.88-0.77-5.88-0.77l-6.21,3.4l-8.77-4.93l-0.76-3.83
            l-2.89-2.89c0,0-3.33,3.14-4.35,3.65c-1.02,0.51-4.16,1.28-4.16,1.28s-3.66-2.55-6.47-1.79c-2.81,0.77-6.21,1.02-7.49,1.53
            c-1.28,0.52-5.11,1.28-5.11,1.28s-6.9-3.4-9.02-3.91c-2.13-0.51-7.75-1.53-7.75-1.53l-6.5-0.13l1.84-14.47l0.01-11.98l-1.18-11.8
            l-1.6-4.29l-3.86-4.27l-0.99-3.19l0.11-3.54l0.2-5.72l-0.67-6.2l-1.99-6.27l0.54-1.9l4.01,0.65l10.66,5.13l15.74,9.84l12.21,6.55
            l2.03-0.2l6.64-0.66l2.97,0.71l8.06,3.91l7.8,2.05l6.74-0.24l4.94-1.28l5.7-2.07l3.79-2.84l3.03-0.16l19.11,5.57l5.71,1.67l21-2.78
            l3.76,3.16l6.16,0.92l2.63,2.1L544.825,248.76z"/>
      <title>Girne</title>
      <text x="550" y="276" text-anchor="middle" dominant-baseline="middle" >Girne</text>
    </g>

    <g id="lefkoşa">
      <path d="M483.455,344.73l0.16-13.25l9.34-4v-10.67l-5.34-2.67l-9.33-6.66l-1.33-4l1.76-4.69l4.68-0.51
            c0,0,3.07-0.34,4.35,0.76c1.27,1.11,2.89,3.23,4.16,1.62c1.28-1.62,1.79-1.7,3.07-1.11c1.28,0.6,3.66,0.6,3.66,0.6l0.25-2.38
            l1.79-2.3l3.32,2.81c0,0,2.13-1.02,2.89-2.56c0.77-1.53,2.81-3.06,3.32,0c0.51,3.07,3.15,3.58,5.45,3.58c2.3,0,5.7,0.34,6.72,0.85
            c1.02,0.51,5.54,2.81,6.64,4.85c1.11,2.04,4.68,4.09,6.73,2.81c2.04-1.28,8-5.11,8.76-6.13c0.77-1.02,5.11-3.4,7.75-3.4
            c2.63,0,4.68,1.1,5.95,2.38c1.28,1.27,5.11,5.11,10.3,4.08c5.19-1.02,12.17-1.53,14.73-0.51c2.55,1.03,6.64,1.54,9.27,1.03
            c2.64-0.52,8-0.52,8-0.52l13.96,0.26h6.21c0,0,3.75-1.02,4.6-2.81c0.85-1.79,6.98-9.02,6.98-9.02l6.209-5.96l6.471-4.17
            c0,0,3.399-1.53,6.21-1.02c2.81,0.51,11.569,0.51,11.569,0.51s1.36-1.02,3.41-1.53c2.04-0.51,3.061,0.17,3.32,2.04
            c0.25,1.87,3.14,2.98,4.93,1.36c1.79-1.61,3.32-2.63,5.37-2.63c2.04,0,5.7,1.27,5.7,1.27l0.75,0.98l2.06,2.68c0,0,0.25,6.21,0,9.28
            c-0.26,3.06,2.38,6.47,2.891,7.74c0.51,1.28,2.81,1.79,4.09,2.05c1.27,0.25,2.55,1.02,2.63,2.63c0.08,1.62-1.36,1.28-2.38,1.28
            c-1.021,0-3.58,0.51-7.49,1.53s-2.04,3.83-1.53,4.94c0.511,1.1,4.931,7.15,5.44,8c0.51,0.84,3.33,7.66,3.84,9.78
            c0.51,2.13,0.51,6.47-0.26,8.26c-0.771,1.79-3.07,4.85-5.11,6.21c-2.04,1.36-5.439,5.11-6.979,7.66c-1.53,2.56,0.26,4.43,1.54,4.94
            c1.27,0.51,6.97,4.68,8,5.7c1.02,1.02,2.55,0.77,2.55,0.77s1.87-0.77,2.89-0.77c1.021,0,4.26-0.25,6.13,2.04
            c1.87,2.3,3.91,3.92,3.91,3.92s2.82,0.51,4.09,0.76c1.28,0.26,2.891,0.85,4.17-0.51c1.28-1.36,2.98-2.3,4.091-0.51
            c1.1,1.79,3.399,4.6,4.68,5.62c1.27,1.02,3.91,2.89,5.7,2.89s4.85,1.79,3.569,4.351c-1.27,2.55-1.779,6.21-1.02,7.479
            c0.77,1.28,2.3,6.73,2.3,6.73l0.26,5.189l0.65,11.94c-0.99-0.13-1.95-0.271-2.45-0.37c-1.25-0.25-6.75,0.25-9.25,0.25
            s-4.75-0.75-6-3.25s-3.25-3-5.75-3.5s-4.5,1.75-7.25,5s-7.5,0.5-10.5-1s-2.25-4.5-2.75-6.5s-5-6.5-5-6.5s-6.25-4-9.5-5.75
            s-5.25,0-6.75,1.5s-5,1.5-6,1.5s-5.75-0.5-8.25-0.5s-3,3.75-3,5c0,0.33,0,1.15-0.01,2.22c0,0.67,0,1.431-0.01,2.23
            c-0.011,0.68-0.021,1.399-0.03,2.1c0,0.25-0.01,0.511-0.01,0.761c-0.021,0.779-0.04,1.529-0.061,2.18
            c-0.01,0.149-0.01,0.29-0.02,0.42c-0.021,0.439-0.04,0.83-0.07,1.15c-0.01,0.17-0.02,0.31-0.04,0.439c-0.25,2-2.25,6.25-5,8.5
            s-0.75,4.75,0.75,5.25s2.5,1.5,2.5,3.5s-3,3.75-4,3.75s-3.5,0-6.75-0.25s-3.25-2.75-3-4.25s1.75-3,3-4s7.25-11.25,8-12.75
            s-0.25-9.25-1-11.75s0.75-12.25,0.75-12.25l-4.75-7.25c0,0-4-4.25-6-6s-2.75-5.75-3.5-8s-5-7.75-7.25-9.75s-1-6-1-6l4.5-4
            c0,0-5.75-1.25-8.5-1.5s-1.5-4.25-0.5-6.5s-4-10-7-12.75s-7.25-2-10.5-1.5s-5.5,6-6.75,9.5s-4.5,4-5.75,3.25s-3-2.75-6.75-5.25
            s-9.25,1.75-10.25,3.75s-5.25,7.25-5.25,7.25s-5,1.5-8.25,1.5s-7.25-4.75-9.5-8s-4.75-0.5-4.5,0.5c0.24,0.97,1.66,4.75,1.74,5
            c-0.33-0.04-7.03-0.8-8.49-3c-1.5-2.25-5.75-4.25-8-4.25s-6.75-2-10.5-5.5s-7.5-2.5-9-2.5s-14,0.5-14,0.5l-3.5,3.25
            c0,0-3.5,3.5-6.25,4.5S483.455,344.73,483.455,344.73z"/>
    <title>Lefkoşa</title>
    <text x="570" y="320" text-anchor="middle" dominant-baseline="middle" >Lefkoşa</text>
    </g>

    <g id="güzelyurt">
      <path d="M292.065,335.62l6.66,2l4.79,0.45l2.29,2.75l8.8,5.08l8.03,1.67l7.22,5.19l5.51,1.42l5.62,3.04l4.5,0.23
            l7.23-0.54l2.82-1.17l8.91-5.14l12.11-8.24l5.33-3.64l2.18-3l7.92-24.19l2.04-9.09l2.24-9.89l0.63-2.91l6.5,0.13
            c0,0,5.62,1.02,7.75,1.53c2.12,0.51,9.02,3.91,9.02,3.91s3.83-0.76,5.11-1.28c1.28-0.51,4.68-0.76,7.49-1.53
            c2.81-0.76,6.47,1.79,6.47,1.79s3.14-0.77,4.16-1.28c1.02-0.51,4.35-3.65,4.35-3.65l2.89,2.89l0.76,3.83l8.77,4.93l6.21-3.4
            c0,0,4.6,0.77,5.88,0.77c1.27,0,6.46,0.51,6.46,0.51l-1.76,4.69l1.33,4l9.33,6.66l5.34,2.67v10.67l-9.34,4l-0.16,13.25l-7.5,6
            c0,0-2-3-2.25-4s-4.25-6.5-4.25-6.5s-1.5,1.75-2.75,2.5s-2,0.75-7.25-0.25s-7,1.5-8,2.5s-3,2.5-6.75,2.25s-8,3-9.25,4.5
            s-8.75,7.5-12,8.75s-3.75,4.75-4,6.5s-1.75,4-4.25,4.5s-7.75,6-9.5,7.5s-5.25,2-9.25,1s-3.25,0.75-5.5,2.25s-6.25-1.25-6.25-1.25
            s-3-2.5-5-2.25s-4.5,0.25-9.5-0.75s-6.5,3.75-7.25,4.75s-2,5.75-3,7s-6.5,2.25-10,2.25s-1.75-3.25-1-5.75s-1.5-6.25-3-8.25
            s-5-3-6-2.5s-4.25,1.25-4.25,1.25s-4.5-5-5.25-6.5s-3.25-3.25-5.5-4s-9.25-4.75-10.25-6s-4-3-5.25-2.75s-5.25,0.75-5.25,0.75
            s-6.75-1.75-9-3.25s-2.5-5-2.5-6s-0.75-13-0.75-13L292.065,335.62z"/>
      <path d="M248.915,331.87l-2.76,0.17l-3.12,4.73l-0.35,0.54l-2.28,1.215l-2.221-0.062l-0.559,0.124l-1.99-0.047
            l-2.27,0.99l0.363,0.922l3.696,2.218l4.928,0.986l6.653-1.479c0.17-0.5,3.719-8.798,3.719-8.798L248.915,331.87z"/>
      <title>Güzelyurt</title>
      <text x="434" y="330" text-anchor="middle" dominant-baseline="middle" >Güzelyurt</text>
    </g>


  </g>

</svg>
  
  
  


