
<svg 
  id="" 
  version="1.1" 
  xmlns="http://www.w3.org/2000/svg" 
  xmlns:xlink="http://www.w3.org/1999/xlink" 
  xmlns:svg="http://www.w3.org/2000/svg" 
  width="64.629997" 
  height="43.68" 
  viewBox="-10 -10 84 63" 
  xml:space="preserve">
  <defs >
    <style >
      text{
         font-family: Poppins, monospace;
         pointer-events: none;
         font-weight: 500;
         font-size: .5em;
         fill: black;
      }
      g#features g path{
         stroke-width: .05px;
         stroke: white;
      }
    </style>
  </defs>
  <g id="features">
    <g id="Scott" title="">
      <path  d="m 56.540879,24.1914 1.072,-0.058 3.21,-0.091 1.306,0.384 -0.149,1.405 -0.5,0.672 -0.572,0.667 -1.821,0.902 -0.776,0.198 -0.329,0.009 -0.139,-0.018 -1.195,-1.811 -0.107,-2.259" id="Scott" />
      <title ></title>
      <text x="224" y="52"></text>
    </g>
    <g id="Clinton" title="">
      <path  d="m 56.360879,20.7934 7.084,-0.402 0.104,1.349 -0.744,1.928 -0.676,0.758 -1.306,-0.384 -3.21,0.091 -1.072,0.058 -0.122,-2.262 -0.058,-1.136" id="Clinton" />
      <title ></title>
      <text x="36" y="59"></text>
    </g>
    <g id="Lyon" title="">
      <path  d="m 2.1358788,3.0673997 1.36,0.009 3.736,0.013 1.79,0.005 -0.005,3.137 -6.72,-0.05 -0.161,-3.114" id="Lyon" />
      <title ></title>
      <text x="95" y="23"></text>
    </g>
    <g id="Sioux" title="">
      <path  d="m 2.2968788,6.1813997 6.72,0.05 0.032,4.5120013 -6.251,-0.01 0.653,-2.2540013 0.149,-0.397 0.027,-0.089 -0.361,-1.298 -0.089,-0.042 -0.672,-0.003 -0.208,-0.469" id="Sioux" />
      <title ></title>
      <text x="162" y="49"></text>
    </g>
    <g id="Plymouth" title="">
      <path  d="m 9.0488788,10.7434 0,4.515 -5.864,-0.014 -0.342,-0.901 -0.244,-0.392 -0.311,-0.289 -0.247,-0.189 0.378,-1.73 0.379,-1.01 6.251,0.01" id="Plymouth" />
      <title ></title>
      <text x="62" y="21"></text>
    </g>
    <g id="Cherokee" title="">
      <path  d="m 13.488879,10.7194 0.031,4.512 -3.348,0.019 -1.1230002,0.008 0,-4.515 4.4400002,-0.024" id="Cherokee" />
      <title ></title>
      <text x="221" y="44"></text>
    </g>
    <g id="O'Brien" title="">
      <path  d="m 9.0168788,6.2313997 4.4440002,0.013 0.028,4.4750013 -4.4400002,0.024 -0.032,-4.5120013" id="O'Brien" />
      <title ></title>
      <text x="197" y="20"></text>
    </g>
    <g id="Osceola" title="">
      <path  d="m 12.821879,3.0713997 0.622,0 0.017,3.173 -4.4440002,-0.013 0.005,-3.137 3.8000002,-0.023" id="Osceola" />
      <title ></title>
      <text x="136" y="59"></text>
    </g>
    <g id="Dickinson" title="">
      <path  d="m 13.443879,3.0713997 4.412,-0.04 0.049,3.172 -4.444,0.041 -0.017,-3.173" id="Dickinson" />
      <title ></title>
      <text x="140" y="23"></text>
    </g>
    <g id="Clay" title="">
      <path  d="m 13.460879,6.2443997 4.444,-0.041 0.05,4.4760013 -4.466,0.04 -0.028,-4.4750013" id="Clay" />
      <title ></title>
      <text x="203" y="41"></text>
    </g>
    <g id="Buena Vista" title="">
      <path  d="m 17.954879,10.6794 0.045,4.529 -4.48,0.023 -0.031,-4.512 4.466,-0.04" id="Buena Vista" />
      <title ></title>
      <text x="104" y="18"></text>
    </g>
    <g id="Pocahontas" title="">
      <path  d="m 17.954879,10.6794 4.435,-0.04 0.054,3.411 0.023,1.113 -4.467,0.045 -0.045,-4.529" id="Pocahontas" />
      <title ></title>
      <text x="210" y="51"></text>
    </g>
    <g id="Palo Alto" title="">
      <path  d="m 22.312879,6.1453997 0.077,4.4940013 -4.435,0.04 -0.05,-4.4760013 4.408,-0.058" id="Palo Alto" />
      <title ></title>
      <text x="146" y="31"></text>
    </g>
    <g id="Emmet" title="">
      <path  d="m 22.263879,2.9673997 0.049,3.178 -4.408,0.058 -0.049,-3.172 0.568,-0.009 3.84,-0.055" id="Emmet" />
      <title ></title>
      <text x="143" y="11"></text>
    </g>
    <g id="Kossuth" title="">
      <path  d="m 26.671879,2.8953997 0.072,3.164 0.085,4.5030013 -4.439,0.077 -0.077,-4.4940013 -0.049,-3.178 1.826,-0.031 2.582,-0.041" id="Kossuth" />
      <title ></title>
      <text x="197" y="45"></text>
    </g>
    <g id="Humboldt" title="">
      <path  d="m 22.389879,10.6394 4.439,-0.077 0.073,3.407 -4.458,0.081 -0.054,-3.411" id="Humboldt" />
      <title ></title>
      <text x="35" y="40"></text>
    </g>
    <g id="Woodbury" title="">
      <path  d="m 9.0488788,15.2584 1.1230002,-0.008 0.004,0.938 0.37,0.183 0.31,0 0,3.416 -6.5220002,-0.048 0.118,-0.798 -0.289,-0.541 -0.112,-1.484 0.067,-0.179 -0.004,-0.199 -0.04,-0.149 -0.1,-0.139 -0.126,-0.049 -0.324,-0.023 -0.339,-0.934 5.864,0.014" id="Woodbury" />
      <title ></title>
      <text x="119" y="46"></text>
    </g>
    <g id="Ida" title="">
      <path  d="m 13.519879,15.2314 0.009,1.127 0.617,-0.005 0.014,3.427 -3.304,0.007 0,-3.416 -0.31,0 -0.37,-0.183 -0.004,-0.938 3.348,-0.019" id="Ida" />
      <title ></title>
      <text x="91" y="21"></text>
    </g>
    <g id="Sac" title="">
      <path  d="m 13.519879,15.2314 4.48,-0.023 0.009,1.115 0.55,0 0.027,3.429 -2.213,0.014 -2.213,0.014 -0.014,-3.427 -0.617,0.005 -0.009,-1.127" id="Sac" />
      <title ></title>
      <text x="129" y="45"></text>
    </g>
    <g id="Calhoun" title="">
      <path  d="m 17.999879,15.2084 4.467,-0.045 0.014,1.109 0.432,-0.004 0.059,3.426 -2.2,0.031 -2.186,0.027 -0.027,-3.429 -0.55,0 -0.009,-1.115" id="Calhoun" />
      <title ></title>
      <text x="86" y="43"></text>
    </g>
    <g id="Webster" title="">
      <path  d="m 26.901879,13.9694 0.045,2.236 0.379,-0.004 0.076,3.393 -2.217,0.051 -2.213,0.049 -0.059,-3.426 -0.432,0.004 -0.014,-1.109 -0.023,-1.113 4.458,-0.081" id="Webster" />
      <title ></title>
      <text x="134" y="59"></text>
    </g>
    <g id="Greene" title="">
      <path  d="m 22.971879,19.6944 2.213,-0.049 0.094,4.497 -1.114,0.021 -3.33,0.06 -0.063,-4.498 2.2,-0.031" id="Greene" />
      <title ></title>
      <text x="82" y="12"></text>
    </g>
    <g id="Carroll" title="">
      <path  d="m 18.585879,19.7524 2.186,-0.027 0.063,4.498 -1.109,0.018 -3.326,0.027 -0.027,-4.502 2.213,-0.014" id="Carroll" />
      <title ></title>
      <text x="189" y="28"></text>
    </g>
    <g id="Crawford" title="">
      <path  d="m 16.372879,19.7664 0.027,4.502 -4.439,0.027 -1.105,0.009 0,-4.517 3.304,-0.007 2.213,-0.014" id="Crawford" />
      <title ></title>
      <text x="208" y="35"></text>
    </g>
    <g id="Monona" title="">
      <path  d="m 10.855879,19.7874 0,4.517 -4.4660002,-0.031 -1.267,-2.353 -0.789,-2.181 6.5220002,0.048" id="Monona" />
      <title ></title>
      <text x="102" y="14"></text>
    </g>
    <g id="Harrison" title="">
      <path  d="m 11.960879,24.2954 0.004,3.394 0.577,-0.005 0.005,1.249 -4.6420002,0 -1.344,-2.28 -0.171,-2.38 4.4660002,0.031 1.105,-0.009" id="Harrison" />
      <title ></title>
      <text x="39" y="13"></text>
    </g>
    <g id="Shelby" title="">
      <path  d="m 11.960879,24.2954 4.439,-0.027 0.031,3.389 0.501,-0.004 0.014,1.261 -1.1,0.006 -3.299,0.013 -0.005,-1.249 -0.577,0.005 -0.004,-3.394" id="Shelby" />
      <title ></title>
      <text x="110" y="55"></text>
    </g>
    <g id="Audubon" title="">
      <path  d="m 16.399879,24.2684 3.326,-0.027 0.045,2.807 0.425,0.563 0.017,1.273 -3.267,0.03 -0.014,-1.261 -0.501,0.004 -0.031,-3.389" id="Audubon" />
      <title ></title>
      <text x="119" y="37"></text>
    </g>
    <g id="Guthrie" title="">
      <path  d="m 20.834879,24.2234 3.33,-0.06 0.064,3.395 0.374,0 0.022,1.263 -4.412,0.063 -0.017,-1.273 -0.425,-0.563 -0.045,-2.807 1.109,-0.018" id="Guthrie" />
      <title ></title>
      <text x="77" y="11"></text>
    </g>
    <g id="Adair" title="">
      <path  d="m 24.624879,28.8214 0.082,4.497 -2.213,0.032 -2.217,0.027 -0.064,-4.493 4.412,-0.063" id="Adair" />
      <title ></title>
      <text x="204" y="28"></text>
    </g>
    <g id="Cass" title="">
      <path  d="m 20.212879,28.8844 0.064,4.493 -2.196,0.023 -2.204,0.012 -0.031,-4.492 1.1,-0.006 3.267,-0.03" id="Cass" />
      <title ></title>
      <text x="201" y="29"></text>
    </g>
    <g id="Pottawattamie" title="">
      <path  d="m 12.546879,28.9334 3.299,-0.013 0.031,4.492 -2.195,0.018 -4.5380002,0.01 -0.676,-0.406 -0.144,-2.623 -0.419,-1.478 4.6420002,0" id="Pottawattamie" />
      <title ></title>
      <text x="72" y="32"></text>
    </g>
    <g id="Fremont" title="">
      <path  d="m 9.4418788,36.7934 4.2440002,-0.018 0.014,1.749 0.113,1.452 0.009,0.968 -3.813,-0.04 -0.8700002,-2.579 0.303,-1.532" id="Fremont" />
      <title ></title>
      <text x="60" y="18"></text>
    </g>
    <g id="Mills" title="">
      <path  d="m 13.681879,33.4304 0.004,3.345 -4.2440002,0.018 -0.429,-1.884 0.131,-1.469 4.5380002,-0.01" id="Mills" />
      <title ></title>
      <text x="69" y="35"></text>
    </g>
    <g id="Montgomery" title="">
      <path  d="m 15.876879,33.4124 2.204,-0.012 0.027,3.347 -4.422,0.028 -0.004,-3.345 2.195,-0.018" id="Montgomery" />
      <title ></title>
      <text x="99" y="38"></text>
    </g>
    <g id="Page" title="">
      <path  d="m 18.107879,36.7474 0.028,2.25 0.148,0 0.009,1.979 -2.803,-0.018 -1.668,-0.014 -0.009,-0.968 -0.113,-1.452 -0.014,-1.749 4.422,-0.028" id="Page" />
      <title ></title>
      <text x="65" y="49"></text>
    </g>
    <g id="Taylor" title="">
      <path  d="m 22.547879,36.7034 0.063,4.268 -1.563,0.019 -2.755,-0.014 -0.009,-1.979 -0.148,0 -0.028,-2.25 4.44,-0.044" id="Taylor" />
      <title ></title>
      <text x="220" y="37"></text>
    </g>
    <g id="Adams" title="">
      <path  d="m 22.493879,33.3504 0.054,3.353 -4.44,0.044 -0.027,-3.347 2.196,-0.023 2.217,-0.027" id="Adams" />
      <title ></title>
      <text x="92" y="22"></text>
    </g>
    <g id="Union" title="">
      <path  d="m 24.706879,33.3184 2.195,-0.036 0.067,3.372 -4.421,0.049 -0.054,-3.353 2.213,-0.032" id="Union" />
      <title ></title>
      <text x="80" y="30"></text>
    </g>
    <g id="Ringgold" title="">
      <path  d="m 22.547879,36.7034 4.421,-0.049 0.077,4.196 -2.109,0.066 -2.326,0.055 -0.063,-4.268" id="Ringgold" />
      <title ></title>
      <text x="55" y="48"></text>
    </g>
    <g id="Decatur" title="">
      <path  d="m 26.968879,36.6544 4.435,-0.118 0.104,4.128 -2.114,0.087 -2.348,0.099 -0.077,-4.196" id="Decatur" />
      <title ></title>
      <text x="140" y="32"></text>
    </g>
    <g id="Clarke" title="">
      <path  d="m 31.309879,33.1194 0.094,3.417 -4.435,0.118 -0.067,-3.372 2.172,-0.117 2.236,-0.046" id="Clarke" />
      <title ></title>
      <text x="37" y="29"></text>
    </g>
    <g id="Madison" title="">
      <path  d="m 28.956879,28.6214 0.117,4.544 -2.172,0.117 -2.195,0.036 -0.082,-4.497 4.332,-0.2" id="Madison" />
      <title ></title>
      <text x="84" y="32"></text>
    </g>
    <g id="Dallas" title="">
      <path  d="m 28.605879,24.0654 0.081,2.848 0.238,0.564 0.032,1.144 -4.332,0.2 -0.022,-1.263 -0.374,0 -0.064,-3.395 1.114,-0.021 3.327,-0.077" id="Dallas" />
      <title ></title>
      <text x="212" y="37"></text>
    </g>
    <g id="Boone" title="">
      <path  d="m 29.619879,19.5534 0.113,4.485 -1.127,0.027 -3.327,0.077 -0.094,-4.497 2.217,-0.051 2.218,-0.041" id="Boone" />
      <title ></title>
      <text x="57" y="51"></text>
    </g>
    <g id="Hamilton" title="">
      <path  d="m 31.394879,14.9934 0.464,4.505 -2.239,0.055 -2.218,0.041 -0.076,-3.393 -0.379,0.004 -0.022,-1.113 4.47,-0.099" id="Hamilton" />
      <title ></title>
      <text x="222" y="11"></text>
    </g>
    <g id="Wright" title="">
      <path  d="m 26.828879,10.5624 4.454,-0.117 0.112,4.548 -4.47,0.099 -0.023,-1.123 -0.073,-3.407" id="Wright" />
      <title ></title>
      <text x="63" y="12"></text>
    </g>
    <g id="Hancock" title="">
      <path  d="m 31.174879,5.9513997 0.108,4.4940013 -4.454,0.117 -0.085,-4.5030013 4.431,-0.108" id="Hancock" />
      <title ></title>
      <text x="80" y="47"></text>
    </g>
    <g id="Winnebago" title="">
      <path  d="m 31.093879,2.7913997 0.081,3.16 -4.431,0.108 -0.072,-3.164 3.006,-0.068 1.416,-0.036" id="Winnebago" />
      <title ></title>
      <text x="182" y="13"></text>
    </g>
    <g id="Worth" title="">
      <path  d="m 35.505879,2.6603997 0.103,3.161 -4.434,0.13 -0.081,-3.16 4.182,-0.121 0.23,-0.01" id="Worth" />
      <title ></title>
      <text x="143" y="17"></text>
    </g>
    <g id="Cerro Gordo" title="">
      <path  d="m 31.174879,5.9513997 4.434,-0.13 0.018,0.554 0.113,3.9480013 -4.457,0.122 -0.108,-4.4940013" id="Cerro Gordo" />
      <title ></title>
      <text x="108" y="38"></text>
    </g>
    <g id="Franklin" title="">
      <path  d="m 31.282879,10.4454 4.457,-0.122 0.126,4.552 -4.471,0.118 -0.112,-4.548" id="Franklin" />
      <title ></title>
      <text x="114" y="35"></text>
    </g>
    <g id="Hardin" title="">
      <path  d="m 35.865879,14.8754 0.384,4.493 -2.191,0.073 -2.2,0.057 -0.464,-4.505 4.471,-0.118" id="Hardin" />
      <title ></title>
      <text x="86" y="27"></text>
    </g>
    <g id="Story" title="">
      <path  d="m 34.058879,19.4414 0.13,4.489 -1.108,0.026 -3.348,0.082 -0.113,-4.485 2.239,-0.055 2.2,-0.057" id="Story" />
      <title ></title>
      <text x="208" y="28"></text>
    </g>
    <g id="Polk" title="">
      <path  d="m 33.080879,23.9564 0.311,4.608 0.008,0.207 -4.443,-0.15 -0.032,-1.144 -0.238,-0.564 -0.081,-2.848 1.127,-0.027 3.348,-0.082" id="Polk" />
      <title ></title>
      <text x="115" y="35"></text>
    </g>
    <g id="Warren" title="">
      <path  d="m 33.399879,28.7714 0.126,4.294 -2.216,0.054 -2.236,0.046 -0.117,-4.544 4.443,0.15" id="Warren" />
      <title ></title>
      <text x="163" y="27"></text>
    </g>
    <g id="Lucas" title="">
      <path  d="m 33.525879,33.0654 2.21,-0.063 0.116,3.404 -4.448,0.13 -0.094,-3.417 2.216,-0.054" id="Lucas" />
      <title ></title>
      <text x="65" y="33"></text>
    </g>
    <g id="Wayne" title="">
      <path  d="m 35.851879,36.4064 0.131,4.084 -2.695,0.125 -1.78,0.049 -0.104,-4.128 4.448,-0.13" id="Wayne" />
      <title ></title>
      <text x="229" y="15"></text>
    </g>
    <g id="Appanoose" title="">
      <path  d="m 40.292879,36.2524 0.157,4.002 -0.744,0.041 -3.723,0.195 -0.131,-4.084 4.441,-0.154" id="Appanoose" />
      <title ></title>
      <text x="187" y="55"></text>
    </g>
    <g id="Monroe" title="">
      <path  d="m 40.160879,32.8504 0.132,3.402 -4.441,0.154 -0.116,-3.404 2.213,-0.072 2.212,-0.08" id="Monroe" />
      <title ></title>
      <text x="197" y="29"></text>
    </g>
    <g id="Marion" title="">
      <path  d="m 37.785879,28.4194 0.163,4.511 -2.213,0.072 -2.21,0.063 -0.126,-4.294 -0.008,-0.207 4.394,-0.145" id="Marion" />
      <title ></title>
      <text x="87" y="47"></text>
    </g>
    <g id="Jasper" title="">
      <path  d="m 34.188879,23.9304 4.448,-0.135 0.249,4.583 -1.1,0.041 -4.394,0.145 -0.311,-4.608 1.108,-0.026" id="Jasper" />
      <title ></title>
      <text x="44" y="13"></text>
    </g>
    <g id="Marshall" title="">
      <path  d="m 36.249879,19.3684 2.221,-0.081 0.166,4.508 -4.448,0.135 -0.13,-4.489 2.191,-0.073" id="Marshall" />
      <title ></title>
      <text x="131" y="19"></text>
    </g>
    <g id="Grundy" title="">
      <path  d="m 40.345879,14.7364 0.307,3.342 -2.21868,0.0875 0.0367,1.12148 -2.221,0.081 -0.384,-4.493 4.48,-0.139" id="Grundy" sodipodi:nodetypes="ccccccc" />
      <title ></title>
      <text x="138" y="17"></text>
    </g>
    <g id="Butler" title="">
      <path  d="m 35.739879,10.3234 4.431,-0.139 0.122,3.43 0.053,1.122 -4.48,0.139 -0.126,-4.552" id="Butler" />
      <title ></title>
      <text x="214" y="54"></text>
    </g>
    <g id="Floyd" title="">
      <path  d="m 35.626879,6.3753997 4.399,-0.149 0.145,3.9580013 -4.431,0.139 -0.113,-3.9480013" id="Floyd" />
      <title ></title>
      <text x="55" y="36"></text>
    </g>
    <g id="Mitchcell" title="">
      <path  d="m 39.904879,2.5033997 0.121,3.723 -4.399,0.149 -0.121,-3.715 4.399,-0.157" id="Mitchcell" />
      <title ></title>
      <text x="64" y="56"></text>
    </g>
    <g id="Howard" title="">
      <path  d="m 40.878879,2.4673997 3.438,-0.14 0.149,3.723 -4.44,0.176 -0.121,-3.723 0.974,-0.036" id="Howard" />
      <title ></title>
      <text x="212" y="48"></text>
    </g>
    <g id="Chickasaw" title="">
      <path  d="m 44.465879,6.0503997 0.062,1.687 0.091,2.2750013 -4.448,0.172 -0.145,-3.9580013 4.44,-0.176" id="Chickasaw" />
      <title ></title>
      <text x="72" y="36"></text>
    </g>
    <g id="Bremer" title="">
      <path  d="m 40.170879,10.1844 4.448,-0.172 0.141,3.43 -4.467,0.172 -0.122,-3.43" id="Bremer" />
      <title ></title>
      <text x="139" y="18"></text>
    </g>
    <g id="Black Hawk" title="">
      <path  d="m 44.759879,13.4424 0.097,2.259 0.177,0.288 0.072,1.916 -2.222,0.086 -2.231,0.087 -0.307,-3.342 -0.053,-1.122 4.467,-0.172" id="Black Hawk" />
      <title ></title>
      <text x="37" y="41"></text>
    </g>
    <g id="Tama" title="">
      <path  d="m 42.883879,17.9914 0.225,5.636 -4.472,0.168 -0.20642,-5.63034 4.45342,-0.17366" sodipodi:nodetypes="ccccc" id="Tama" />
      <title ></title>
      <text x="46" y="48"></text>
    </g>
    <g id="Poweshiek" title="">
      <path  d="m 38.636879,23.7954 4.472,-0.168 0.186,4.58 -1.101,0.045 -3.308,0.126 -0.249,-4.583" id="Poweshiek" />
      <title ></title>
      <text x="137" y="25"></text>
    </g>
    <g id="Mahaska" title="">
      <path  d="m 38.885879,28.3784 3.308,-0.126 0.19,4.508 -2.223,0.09 -2.212,0.08 -0.163,-4.511 1.1,-0.041" id="Mahaska" />
      <title ></title>
      <text x="199" y="36"></text>
    </g>
    <g id="Wapello" title="">
      <path  d="m 42.383879,32.7604 2.222,-0.096 0.144,3.412 -4.457,0.176 -0.132,-3.402 2.223,-0.09" id="Wapello" />
      <title ></title>
      <text x="138" y="47"></text>
    </g>
    <g id="Davis" title="">
      <path  d="m 44.749879,36.0764 0.148,3.881 -1.658,0.108 -2.79,0.189 -0.157,-4.002 4.457,-0.176" id="Davis" />
      <title ></title>
      <text x="68" y="58"></text>
    </g>
    <g id="Van Buren" title="">
      <path  d="m 44.749879,36.0764 4.462,-0.207 0.046,1.136 0.147,2.784 -2.208,0.006 -2.299,0.162 -0.148,-3.881" id="Van Buren" />
      <title ></title>
      <text x="51" y="57"></text>
    </g>
    <g id="Jefferson" title="">
      <path  d="m 49.080879,32.4714 0.131,3.398 -4.462,0.207 -0.144,-3.412 2.257,-0.108 2.218,-0.085" id="Jefferson" />
      <title ></title>
      <text x="44" y="43"></text>
    </g>
    <g id="Benton" title="">
      <path  d="m 47.322879,17.7874 0.244,5.669 -4.458,0.171 -0.225,-5.636 2.222,-0.086 2.217,-0.118" id="Benton" />
      <title ></title>
      <text x="122" y="42"></text>
    </g>
    <g id="Iowa" title="">
      <path  d="m 43.108879,23.6274 4.458,-0.171 0.22,4.538 -1.117,0.06 -3.375,0.153 -0.186,-4.58" id="Iowa" />
      <title ></title>
      <text x="49" y="22"></text>
    </g>
    <g id="Keokuk" title="">
      <path  d="m 43.294879,28.2074 3.375,-0.153 0.193,4.502 -2.257,0.108 -2.222,0.096 -0.19,-4.508 1.101,-0.045" id="Keokuk" />
      <title ></title>
      <text x="55" y="42"></text>
    </g>
    <g id="Washington" title="">
      <path  d="m 47.786879,27.9944 2.966,-0.129 0.158,0.225 0.248,0.888 0.14,3.393 -2.218,0.1 -2.218,0.085 -0.193,-4.502 1.117,-0.06" id="Washington" />
      <title ></title>
      <text x="61" y="17"></text>
    </g>
    <g id="Henry" title="">
      <path  d="m 51.298879,32.3714 1.167,1.091 -0.207,3.412 -3.001,0.131 -0.046,-1.136 -0.131,-3.398 2.218,-0.1" id="Henry" />
      <title ></title>
      <text x="68" y="27"></text>
    </g>
    <g id="Lee" title="">
      <path  d="m 49.257879,37.0054 3.001,-0.131 2.957,1.366 -0.677,0.794 -0.315,0.008 -0.257,0.019 -0.077,0.004 -0.004,0 -0.51,0.179 -0.014,0.009 -0.058,0.033 -0.244,0.139 -0.086,0.054 -0.03,0.033 -0.036,0.035 -0.036,0.041 -0.41,0.63 -0.015,0.096 0.032,0.108 0.199,0.094 0.162,0.235 0.054,0.157 0.008,0.13 -0.026,1.16 -0.004,0.008 -0.023,0.113 -0.103,0.086 -0.014,0.008 -0.298,0.105 -0.639,-0.046 -0.407,-0.329 -0.982,-1.208 -0.036,-0.09 0.032,-0.262 -0.023,-0.085 -0.771,-0.582 -0.203,-0.127 -0.147,-2.784" id="Lee" />
      <title ></title>
      <text x="209" y="39"></text>
    </g>
    <g id="Des Moines" title="">
      <path  d="m 56.535879,33.2734 0.009,0.032 0.036,0.112 0.049,0.348 -0.039,1.05 -0.082,0.383 -0.054,0.081 -0.279,0.158 -0.104,0.102 -0.753,1.074 -0.036,0.167 -0.067,1.46 -2.957,-1.366 0.207,-3.412 4.07,-0.189" id="Des Moines" />
      <title ></title>
      <text x="187" y="40"></text>
    </g>
    <g id="Louisa" title="">
      <path  d="m 51.158879,28.9784 1.109,-0.045 0.049,1.131 2.785,-0.108 0,0.004 -0.275,1.101 0.01,0.107 0.004,0.009 0.653,0.785 0.308,0.153 0.129,-0.018 0.078,0.036 0.082,0.085 0.454,0.744 -0.009,0.311 -4.07,0.189 -1.167,-1.091 -0.14,-3.393" id="Louisa" />
      <title ></title>
      <text x="165" y="14"></text>
    </g>
    <g id="Muscatine" title="">
      <path  d="m 56.647879,26.4504 1.195,1.811 -0.59,0.005 -1.352,0.369 -0.362,0.131 -0.103,0.067 -0.009,0.005 0,0.004 -0.068,0.096 -0.009,0.025 -0.134,0.551 -0.114,0.442 -2.785,0.108 -0.049,-1.131 -0.09,-2.272 4.47,-0.211" id="Muscatine" />
      <title ></title>
      <text x="107" y="11"></text>
    </g>
    <g id="Johnson" title="">
      <path  d="m 52.014879,23.2724 0.163,3.389 0.09,2.272 -1.109,0.045 -0.248,-0.888 -0.158,-0.225 -2.966,0.129 -0.22,-4.538 4.448,-0.184" id="Johnson" />
      <title ></title>
      <text x="119" y="22"></text>
    </g>
    <g id="Linn" title="">
      <path  d="m 51.766879,17.6164 0.195,4.525 0.053,1.131 -4.448,0.184 -0.244,-5.669 2.227,-0.064 2.217,-0.107" id="Linn" />
      <title ></title>
      <text x="155" y="48"></text>
    </g>
    <g id="Cedar" title="">
      <path  d="m 56.418879,21.9294 0.122,2.262 0.107,2.259 -4.47,0.211 -0.216,-4.52 4.457,-0.212" id="Cedar" />
      <title ></title>
      <text x="174" y="20"></text>
    </g>
    <g id="Jones" title="">
      <path  d="m 53.979879,17.5124 2.199,-0.109 0.182,3.39 0.058,1.136 -4.457,0.212 -0.195,-4.525 2.213,-0.104" id="Jones" />
      <title ></title>
      <text x="195" y="28"></text>
    </g>
    <g id="Buchanan" title="">
      <path  d="m 49.242879,13.2254 0.027,0.983 0.063,1.28 0.163,1.239 0.054,0.996 -2.227,0.064 -2.217,0.118 -0.072,-1.916 -0.177,-0.288 -0.097,-2.259 4.483,-0.217" id="Buchanan" />
      <title ></title>
      <text x="118" y="58"></text>
    </g>
    <g id="Fayette" title="">
      <path  d="m 44.527879,7.7373997 4.473,-0.182 0.242,5.6700013 -4.483,0.217 -0.141,-3.43 -0.091,-2.2750013" id="Fayette" />
      <title ></title>
      <text x="95" y="33"></text>
    </g>
    <g id="Winneshiek" title="">
      <path  d="m 48.693879,2.1383997 0.094,2.051 0.068,-0.005 0.145,3.371 -4.473,0.182 -0.062,-1.687 -0.149,-3.723 3.264,-0.139 1.113,-0.05" id="Winneshiek" />
      <title ></title>
      <text x="172" y="37"></text>
    </g>
    <g id="Allamakee" title="">
      <path  d="m 52.361879,1.9623997 0.162,0.996 -0.009,0.663 1.001,0.704 0.217,0.275 0.283,0.455 -0.036,0.161 -0.72,1.213 -0.245,0.951 -4.014,0.175 -0.145,-3.371 -0.068,0.005 -0.094,-2.051 3.668,-0.176" id="Allamakee" />
      <title ></title>
      <text x="55" y="14"></text>
    </g>
    <g id="Clayton" title="">
      <path  d="m 53.014879,7.3803997 0.2,1.226 0.211,0.986 0.861,1.9120013 0.117,0.243 0.761,0.505 0.262,0.121 0.496,0.118 -2.204,0.492 -4.476,0.242 -0.242,-5.6700013 4.014,-0.175" id="Clayton" />
      <title ></title>
      <text x="68" y="24"></text>
    </g>
    <g id="Delaware" title="">
      <path  d="m 49.242879,13.2254 4.476,-0.242 0.261,4.529 -2.213,0.104 -2.217,0.107 -0.054,-0.996 -0.163,-1.239 -0.063,-1.28 -0.027,-0.983" id="Delaware" />
      <title ></title>
      <text x="88" y="30"></text>
    </g>
    <g id="Dubuque" title="">
      <path  d="m 53.718879,12.9834 2.204,-0.492 1.221,0.234 0.473,0.113 0.108,0.053 0.068,0.068 0.6,1.091 0.103,0.325 0.006,0.073 -0.036,0.062 -0.132,0.226 -0.004,0.03 0.009,0.072 0.022,0.065 0.077,0.08 0.22,0.158 0.637,0.329 0.81,0.564 0.004,0.004 0.024,0.023 -1.803,0.094 0.059,1.135 -2.21,0.113 -2.199,0.109 -0.261,-4.529" id="Dubuque" />
      <title ></title>
      <text x="189" y="17"></text>
    </g>
    <g id="Jackson" title="">
      <path  d="m 60.132879,16.0614 0.567,0.657 0.027,0.042 0.005,0.049 -0.054,0.365 -0.054,0.121 0,0.082 0.132,0.297 0.007,0.014 0.271,0.338 0.009,0.008 0.163,0.131 0.175,0.113 0.397,0.127 1.667,1.986 -7.084,0.402 -0.182,-3.39 2.21,-0.113 -0.059,-1.135 1.803,-0.094" id="Jackson" />
      <title ></title>
      <text x="111" y="30"></text>
    </g>
  </g>
</svg>